<svg width="111" height="97" viewBox="0 0 111 97" fill="none" xmlns="http://www.w3.org/2000/svg">
<path d="M80.2035 75.9097C80.2035 75.9097 87.4548 95.7525 58.015 95.5671C28.5752 95.3817 12.3972 74.7475 18.2153 64.2593C23.2847 55.1115 79.6545 61.778 80.2035 75.9097Z" fill="#EF6843"/>
<path d="M80.8953 85.6921C79.0414 90.6688 73.4301 95.5671 58.3359 95.5671C40.7105 95.5671 29.8301 89.1145 21.8018 80.48" stroke="#414042" stroke-miterlimit="10" stroke-linecap="round" stroke-linejoin="round"/>
<path d="M19.1068 76.6156C18.9856 76.3375 18.8644 76.0523 18.7432 75.7742" stroke="#414042" stroke-miterlimit="10" stroke-linecap="round" stroke-linejoin="round"/>
<path d="M38.2581 0.923416C40.832 0.923416 47.5698 13.5578 46.9067 31.9675L21.5239 33.7214C21.5239 33.7214 29.6807 0.923416 38.2581 0.923416Z" fill="white" stroke="#414042" stroke-miterlimit="10" stroke-linecap="round" stroke-linejoin="round"/>
<path d="M77.8865 0.923412C80.3963 1.47955 87.1983 13.5578 86.5352 31.9675L64.0757 21.3651C64.0757 21.3651 73.3376 -0.0890492 77.8865 0.923412Z" fill="white" stroke="#414042" stroke-miterlimit="10" stroke-linecap="round" stroke-linejoin="round"/>
<path d="M12.647 56.3521C14.8359 72.4089 34.6573 86.1412 57.4092 86.1412C74.9775 86.1412 89.6368 77.3571 95.3337 66.0917C97.7365 61.3359 98.1785 55.8245 96.8523 50.6623C92.8524 35.1189 81.2091 17.7146 55.2701 18.7128C22.2867 19.989 12.6398 41.5644 12.647 56.3521Z" fill="white"/>
<path d="M57.4092 86.1412C40.3471 86.1412 24.9321 78.4194 17.3671 67.7815C14.8431 64.2379 13.1961 60.3663 12.6471 56.3521C12.2834 46.4913 15.3351 38.8408 22.7289 31.2331" stroke="#414042" stroke-miterlimit="10" stroke-linecap="round" stroke-linejoin="round"/>
<path d="M78.3071 8.84485C76.5317 8.43844 74.2786 14.4205 72.3821 18.7556C71.9043 19.8536 72.4391 21.1227 73.5371 21.5363C73.5371 21.5363 79.1556 24.3098 83.2767 27.8035C91.2837 34.5913 95.5189 43.4967 97.387 52.2737C97.7577 54.0206 97.9217 56.9154 97.6793 58.6836C96.1107 70.1558 85.2517 80.5727 70.3286 84.4942" stroke="#414042" stroke-miterlimit="10" stroke-linecap="round" stroke-linejoin="round"/>
<path d="M31.7695 24.4738C31.7695 24.4738 33.9513 9.11578 38.2293 8.83058" stroke="#414042" stroke-miterlimit="10" stroke-linecap="round" stroke-linejoin="round"/>
<path d="M42.9423 20.3669C39.5127 21.2012 36.1046 22.3776 31.7695 24.4738" stroke="#414042" stroke-miterlimit="10" stroke-linecap="round" stroke-linejoin="round"/>
<path d="M65.9795 19.44C62.714 18.834 59.1561 18.5702 55.2702 18.7199C53.6375 18.7841 50.486 18.8411 46.2437 19.6397" stroke="#414042" stroke-miterlimit="10" stroke-linecap="round" stroke-linejoin="round"/>
<path d="M52.5215 50.2574C52.6499 48.5176 51.5379 47.0175 50.0377 46.9068C48.5375 46.7961 47.2173 48.1167 47.0889 49.8564C46.9605 51.5962 48.0726 53.0962 49.5728 53.207C51.0729 53.3177 52.3931 51.9971 52.5215 50.2574Z" fill="#414042"/>
<path d="M78.8838 53.1823C80.3741 52.978 81.3901 51.4114 81.1532 49.6832C80.9163 47.955 79.5162 46.7196 78.026 46.9239C76.5357 47.1281 75.5197 48.6947 75.7566 50.423C75.9935 52.1512 77.3936 53.3866 78.8838 53.1823Z" fill="#414042"/>
<path d="M66.0864 59.197C66.0864 59.197 66.0579 60.2593 65.6372 62.3056" stroke="#414042" stroke-miterlimit="10" stroke-linecap="round" stroke-linejoin="round"/>
<path d="M57.5728 60.5303C57.5728 60.5303 59.5977 65.9348 65.6368 62.3128C65.6368 62.3128 70.6563 65.9705 72.3461 61.7067" stroke="#414042" stroke-miterlimit="10" stroke-linecap="round" stroke-linejoin="round"/>
<path d="M103.89 54.9546L110 54.6765" stroke="#414042" stroke-miterlimit="10" stroke-linecap="round" stroke-linejoin="round"/>
<path d="M103.74 61.0935L109.815 62.3056" stroke="#414042" stroke-miterlimit="10" stroke-linecap="round" stroke-linejoin="round"/>
<path d="M7.32819 54.9546L1.21777 54.6765" stroke="#414042" stroke-miterlimit="10" stroke-linecap="round" stroke-linejoin="round"/>
<path d="M7.48484 61.0935L0.689941 62.3056" stroke="#414042" stroke-miterlimit="10" stroke-linecap="round" stroke-linejoin="round"/>
<path d="M69.3592 57.0152C70.2219 55.7175 70.1221 54.5696 68.6034 54.2273C67.32 53.935 64.3325 54.1489 63.1846 54.4769C61.673 54.9118 61.0884 56.0384 62.5429 57.5713C63.8691 58.9688 65.4448 59.7388 65.4448 59.7388C65.8726 60.0383 66.4501 60.0098 66.8494 59.6675C66.8494 59.6675 68.5749 58.1988 69.3592 57.0152Z" fill="#FF9CAF"/>
<path d="M69.3592 57.0152C70.2219 55.7175 70.1221 54.5696 68.6034 54.2273C67.32 53.935 64.3325 54.1489 63.1846 54.4769C61.673 54.9118 61.0884 56.0384 62.5429 57.5713C63.8691 58.9688 65.4448 59.7388 65.4448 59.7388C65.8726 60.0383 66.4501 60.0098 66.8494 59.6675C66.8494 59.6675 68.5749 58.1988 69.3592 57.0152Z" fill="#414042"/>
<path d="M81.6083 82.6261L81.5869 82.8187" stroke="#414042" stroke-miterlimit="10" stroke-linecap="round" stroke-linejoin="round"/>
<path d="M49.0171 47.3968C49.0171 47.3968 52.411 46.035 54.1293 48.4806" stroke="#414042" stroke-miterlimit="10" stroke-linecap="round" stroke-linejoin="round"/>
<path d="M77.6655 47.3968C77.6655 47.3968 81.0594 46.035 82.7777 48.4806" stroke="#414042" stroke-miterlimit="10" stroke-linecap="round" stroke-linejoin="round"/>
</svg>
