<svg width="8" height="27" viewBox="0 0 8 27" fill="none" xmlns="http://www.w3.org/2000/svg">
<path d="M2.0284 22.1191L2.47028 20.4103C2.55476 20.0819 2.99663 19.9663 3.25006 20.2157L4.5432 21.4867C4.60169 21.5475 4.67967 21.59 4.76414 21.6083L6.59014 22.0218C6.94104 22.1009 7.0645 22.5144 6.79808 22.7516L5.43996 23.9618C5.37498 24.0165 5.32948 24.0895 5.30999 24.1685L4.86811 25.8774C4.78364 26.2058 4.34176 26.3213 4.08833 26.072L2.79519 24.801C2.73671 24.7402 2.65873 24.6976 2.57425 24.6794L0.74826 24.2658C0.397357 24.1868 0.273892 23.7733 0.540318 23.5361L1.89844 22.3259C1.96342 22.2711 2.00891 22.1982 2.0284 22.1191Z" fill="white"/>
<path d="M4.80322 6.15675L5.34907 4.05869L6.97362 2.61133" stroke="#414042" stroke-width="0.488839" stroke-miterlimit="10" stroke-linecap="round" stroke-linejoin="round"/>
<path d="M3.74414 0.696289L4.64089 1.58416" stroke="#414042" stroke-width="0.488839" stroke-miterlimit="10" stroke-linecap="round" stroke-linejoin="round"/>
</svg>
