<svg width="250" height="93" viewBox="0 0 250 93" fill="none" xmlns="http://www.w3.org/2000/svg">
<path d="M217.451 34.3524C220.953 27.3975 221.303 19.1355 216.333 13.3181" stroke="white" stroke-width="1.5" stroke-miterlimit="10" stroke-linecap="round" stroke-linejoin="round"/>
<path d="M6.83888 0.216797C-4.27695 12.4402 2.92739 33.6341 16.8072 42.6146C30.687 51.5951 48.2588 51.8146 64.7829 51.7448C100.974 51.5951 137.176 51.4554 173.367 51.3057C178.625 51.2858 184.024 51.2259 189.282 50.6272" stroke="white" stroke-width="1.5" stroke-miterlimit="10" stroke-linecap="round" stroke-linejoin="round"/>
<path d="M61.7394 6.5332C57.8079 14.9749 53.8765 23.4165 49.9351 31.8482C50.1047 30.3514 50.2843 28.8647 50.4539 27.3679" stroke="white" stroke-width="1.5" stroke-miterlimit="10" stroke-linecap="round" stroke-linejoin="round"/>
<path d="M60.0933 6.31372C63.2165 14.1267 66.3397 21.9298 69.4629 29.7428" stroke="white" stroke-width="1.5" stroke-miterlimit="10" stroke-linecap="round" stroke-linejoin="round"/>
<path d="M53.0684 20.3733C57.359 21.1516 61.6597 21.9399 65.9504 22.7182" stroke="white" stroke-width="1.5" stroke-miterlimit="10" stroke-linecap="round" stroke-linejoin="round"/>
<path d="M80.0098 6.31372C80.0098 14.905 80.0098 23.4964 80.0098 32.0877" stroke="white" stroke-width="1.5" stroke-miterlimit="10" stroke-linecap="round" stroke-linejoin="round"/>
<path d="M81.5464 12.3604C83.1629 9.2172 87.713 8.06969 90.6267 10.0654C93.5403 12.061 94.1091 16.7209 91.7642 19.3651C89.4193 22.0094 84.7195 21.9795 82.4045 19.3252" stroke="white" stroke-width="1.5" stroke-miterlimit="10" stroke-linecap="round" stroke-linejoin="round"/>
<path d="M101.104 8.65869C101.882 16.0726 102.67 23.4964 103.448 30.9103" stroke="white" stroke-width="1.5" stroke-miterlimit="10" stroke-linecap="round" stroke-linejoin="round"/>
<path d="M102.271 11.0133C106.352 8.46888 112.629 12.1609 112.389 16.9604C112.15 21.76 105.544 24.8134 101.732 21.8797" stroke="white" stroke-width="1.5" stroke-miterlimit="10" stroke-linecap="round" stroke-linejoin="round"/>
<path d="M127.396 6.36353C126.688 14.7852 125.979 23.1969 125.281 31.6186C130.14 30.3614 135.01 29.1141 139.869 27.8568" stroke="white" stroke-width="1.5" stroke-miterlimit="10" stroke-linecap="round" stroke-linejoin="round"/>
<path d="M147.952 6.31372C150.686 11.3927 153.42 16.4617 156.154 21.5406" stroke="white" stroke-width="1.5" stroke-miterlimit="10" stroke-linecap="round" stroke-linejoin="round"/>
<path d="M161.752 8.52881C157.491 17.1401 153.23 25.7414 148.97 34.3527" stroke="white" stroke-width="1.5" stroke-miterlimit="10" stroke-linecap="round" stroke-linejoin="round"/>
<path d="M200.268 64.3374C194.98 48.871 189.701 33.4046 184.413 17.9382C197.524 27.7569 210.636 37.5755 223.737 47.3942C218.688 45.2688 212.362 46.6358 208.64 50.6571C204.918 54.6883 204.05 61.0844 206.564 65.9638" stroke="white" stroke-width="1.5" stroke-miterlimit="10" stroke-linecap="round" stroke-linejoin="round"/>
<path d="M182.816 59.8672C178.117 62.711 173.427 65.5548 168.727 68.4086" stroke="white" stroke-width="1.5" stroke-miterlimit="10" stroke-linecap="round" stroke-linejoin="round"/>
<path d="M204.869 79.7239C204.609 83.8848 204.35 88.0558 204.09 92.2167" stroke="white" stroke-width="1.5" stroke-miterlimit="10" stroke-linecap="round" stroke-linejoin="round"/>
<path d="M221.921 66.5425C224.536 69.9151 227.15 73.2978 229.764 76.6705" stroke="white" stroke-width="1.5" stroke-miterlimit="10" stroke-linecap="round" stroke-linejoin="round"/>
<path d="M237.667 50.8267C241.309 50.5672 244.951 50.3078 248.603 50.0483" stroke="white" stroke-width="1.5" stroke-miterlimit="10" stroke-linecap="round" stroke-linejoin="round"/>
<path d="M232.987 24.2744C236.37 21.1512 239.753 18.028 243.135 14.9048" stroke="white" stroke-width="1.5" stroke-miterlimit="10" stroke-linecap="round" stroke-linejoin="round"/>
</svg>
