<svg width="118" height="169" viewBox="0 0 118 169" fill="none" xmlns="http://www.w3.org/2000/svg">
<path d="M103.978 137.702H21.7285" stroke="#414042" stroke-miterlimit="10" stroke-linecap="round" stroke-linejoin="round"/>
<path d="M61.3856 147.777C59.7309 149.565 57.7371 151.059 55.5966 152.29C53.446 153.5 51.1386 154.442 48.7653 155.081C46.3921 155.719 47.141 156.16 44.7374 156.322L42.9359 156.408L40.8865 156.362C39.6923 156.337 35.6289 156.317 34.3942 156.195C31.9552 155.962 29.4706 155.496 27.0113 154.645C24.5672 153.794 22.1231 152.538 20.0383 150.755C17.9433 148.987 16.233 146.718 15.1602 144.256C14.0672 141.795 13.5763 139.191 13.5156 136.684C13.4549 134.167 13.804 131.725 14.4163 129.4C15.0337 127.075 15.9091 124.862 16.9667 122.765C17.498 121.716 18.0749 120.693 18.6922 119.7C19.0009 119.204 19.3197 118.713 19.6486 118.231C19.8106 117.988 19.9775 117.75 20.1496 117.512L20.5999 116.869C21.6575 115.354 22.5633 113.784 23.2465 112.199C23.9397 110.618 24.385 109.013 24.5216 107.544C24.6633 106.08 24.466 104.763 24.0055 103.897C23.5501 103.016 22.9479 102.504 21.9409 102.074L21.9004 102.058C19.3501 100.964 18.2166 98.1176 19.3652 95.6964C20.519 93.2753 23.5197 92.2015 26.0751 93.2955C26.0853 93.3006 26.1207 93.3158 26.1308 93.3209C27.6033 93.9743 29.0404 94.8911 30.2549 96.0561C31.4795 97.2109 32.4359 98.614 33.0988 100.052C33.7667 101.501 34.1361 102.985 34.293 104.414C34.4499 105.847 34.4094 107.225 34.2474 108.547C33.9084 111.186 33.1038 113.587 32.0715 115.79C31.0392 118.004 29.7742 120.035 28.3725 121.924L27.907 122.557C27.7653 122.745 27.6286 122.932 27.4971 123.124C27.2238 123.504 26.9657 123.889 26.7127 124.274C26.2067 125.049 25.7412 125.839 25.311 126.645C24.4559 128.25 23.7677 129.912 23.2819 131.588C22.3154 134.926 22.2496 138.345 23.3831 141.07C23.9397 142.438 24.6735 143.907 25.9183 145.193C26.9708 146.277 28.9544 147.503 30.5686 148.126C32.1829 148.749 33.9793 149.175 35.8617 149.423C36.7928 149.539 37.8048 149.631 38.7814 149.701L40.254 149.772L41.7164 149.783C43.6595 149.752 45.5824 149.59 47.4345 149.215C49.2815 148.83 51.0677 148.288 52.7376 147.518" fill="white"/>
<path d="M61.3856 147.777C59.7309 149.565 57.7371 151.059 55.5966 152.29C53.446 153.5 51.1386 154.442 48.7653 155.081C46.3921 155.719 47.141 156.16 44.7374 156.322L42.9359 156.408L40.8865 156.362C39.6923 156.337 35.6289 156.317 34.3942 156.195C31.9552 155.962 29.4706 155.496 27.0113 154.645C24.5672 153.794 22.1231 152.538 20.0383 150.755C17.9433 148.987 16.233 146.718 15.1602 144.256C14.0672 141.795 13.5763 139.191 13.5156 136.684C13.4549 134.167 13.804 131.725 14.4163 129.4C15.0337 127.075 15.9091 124.862 16.9667 122.765C17.498 121.716 18.0749 120.693 18.6922 119.7C19.0009 119.204 19.3197 118.713 19.6486 118.231C19.8106 117.988 19.9775 117.75 20.1496 117.512L20.5999 116.869C21.6575 115.354 22.5633 113.784 23.2465 112.199C23.9397 110.618 24.385 109.013 24.5216 107.544C24.6633 106.08 24.466 104.763 24.0055 103.897C23.5501 103.016 22.9479 102.504 21.9409 102.074L21.9004 102.058C19.3501 100.964 18.2166 98.1176 19.3652 95.6964C20.519 93.2753 23.5197 92.2015 26.0751 93.2955C26.0853 93.3006 26.1207 93.3158 26.1308 93.3209C27.6033 93.9743 29.0404 94.8911 30.2549 96.0561C31.4795 97.2109 32.4359 98.614 33.0988 100.052C33.7667 101.501 34.1361 102.985 34.293 104.414C34.4499 105.847 34.4094 107.225 34.2474 108.547C33.9084 111.186 33.1038 113.587 32.0715 115.79C31.0392 118.004 29.7742 120.035 28.3725 121.924L27.907 122.557C27.7653 122.745 27.6286 122.932 27.4971 123.124C27.2238 123.504 26.9657 123.889 26.7127 124.274C26.2067 125.049 25.7412 125.839 25.311 126.645C24.4559 128.25 23.7677 129.912 23.2819 131.588C22.3154 134.926 22.2496 138.345 23.3831 141.07C23.9397 142.438 24.6735 143.907 25.9183 145.193C26.9708 146.277 28.9544 147.503 30.5686 148.126C32.1829 148.749 33.9793 149.175 35.8617 149.423C36.7928 149.539 37.8048 149.631 38.7814 149.701L40.254 149.772L41.7164 149.783C43.6595 149.752 45.5824 149.59 47.4345 149.215C49.2815 148.83 51.0677 148.288 52.7376 147.518" stroke="#414042" stroke-miterlimit="10" stroke-linecap="round" stroke-linejoin="round"/>
<path d="M10.7073 137.702H7.42822" stroke="#414042" stroke-miterlimit="10" stroke-linecap="round" stroke-linejoin="round"/>
<path d="M87.9771 117.112C86.9903 102.17 81.9199 87.4757 79.0305 82.993C76.6927 77.5125 72.7153 79.0776 63.7486 78.9105V78.9003C63.6828 78.9003 63.6221 78.9054 63.5563 78.9054C63.4905 78.9054 63.4298 78.9003 63.364 78.9003V78.9105C63.3589 78.9105 63.3539 78.9105 63.3488 78.9105C63.3438 78.9105 63.3387 78.9105 63.3336 78.9105V78.9003C63.2679 78.9003 63.2071 78.9054 63.1413 78.9054C63.0756 78.9054 63.0148 78.9003 62.9491 78.9003V78.9105C53.9823 79.0776 50.0049 77.5175 47.6671 82.993C44.7726 87.4757 39.7023 102.185 38.7206 117.132C31.368 119.047 31.3022 133.463 31.3022 133.463C31.3022 146.389 42.0603 156.874 54.2808 156.874H63.3792H72.4775C84.698 156.874 95.4561 146.394 95.4561 133.463C95.451 133.463 95.3498 118.855 87.9771 117.112Z" fill="white" stroke="#414042" stroke-miterlimit="10" stroke-linecap="round" stroke-linejoin="round"/>
<path d="M88.3467 72.3765L91.3019 72.7108" stroke="#414042" stroke-miterlimit="10" stroke-linecap="round" stroke-linejoin="round"/>
<path d="M87.6938 75.7651L90.4972 76.92" stroke="#414042" stroke-miterlimit="10" stroke-linecap="round" stroke-linejoin="round"/>
<path d="M38.2652 72.3765L35.3101 72.7108" stroke="#414042" stroke-miterlimit="10" stroke-linecap="round" stroke-linejoin="round"/>
<path d="M38.9181 75.7651L36.1147 76.92" stroke="#414042" stroke-miterlimit="10" stroke-linecap="round" stroke-linejoin="round"/>
<path d="M86.3531 66.6577C85.417 63.0563 83.7218 59.2777 80.9943 56.1525C81.0045 46.5843 77.4673 41.3925 76.1213 41.0937C74.2288 40.6732 70.8738 46.6958 69.2748 50.0894C67.4885 49.7653 65.5504 49.6184 63.4302 49.6994C63.3998 49.6994 63.3745 49.7045 63.3442 49.7045C63.3138 49.7045 63.2885 49.6994 63.2582 49.6994C61.1379 49.6184 59.1998 49.7653 57.4136 50.0894C55.8145 46.6958 52.4596 40.6732 50.567 41.0937C49.221 41.3925 45.6839 46.5843 45.694 56.1525C42.9666 59.2777 41.2714 63.0563 40.3352 66.6577C39.6015 69.479 39.8444 72.4877 41.1702 75.0912C44.3126 81.2505 52.3887 86.0472 62.0791 86.0472C62.5042 86.0472 62.9242 86.0371 63.3442 86.0219C63.7642 86.0371 64.1842 86.0472 64.6092 86.0472C74.2946 86.0472 82.3758 81.2454 85.5182 75.0912C86.8389 72.4877 87.0869 69.479 86.3531 66.6577Z" fill="white" stroke="#414042" stroke-miterlimit="10" stroke-linecap="round" stroke-linejoin="round"/>
<path d="M53.1829 49.4007C52.7932 47.9116 52.1405 45.85 51.26 44.5584C50.926 44.0772 50.2277 44.138 49.914 44.6344C49.1954 45.7842 47.7633 49.188 47.8797 54.0202" stroke="#414042" stroke-miterlimit="10" stroke-linecap="round" stroke-linejoin="round"/>
<path d="M47.9204 54.0508C48.3607 53.5898 49.0691 53.0276 49.737 52.7085" stroke="#414042" stroke-miterlimit="10" stroke-linecap="round" stroke-linejoin="round"/>
<path d="M73.2622 49.4009C73.6518 47.9118 74.3046 45.8502 75.1851 44.5586C75.5191 44.0774 76.2123 44.1433 76.5311 44.6346C77.2851 45.8097 78.6817 49.1882 78.5653 54.0204" stroke="#414042" stroke-miterlimit="10" stroke-linecap="round" stroke-linejoin="round"/>
<path d="M78.5246 54.0508C78.0844 53.5898 77.376 53.0276 76.708 52.7085" stroke="#414042" stroke-miterlimit="10" stroke-linecap="round" stroke-linejoin="round"/>
<path d="M81.2421 83.7985L80.9537 82.6436C80.7361 81.7775 79.8809 81.3368 79.132 81.6914C72.0527 85.0344 63.3693 84.7254 63.3693 84.7254C63.3693 84.7254 54.691 85.0395 47.6066 81.6914C46.8577 81.3368 46.0025 81.7775 45.7849 82.6436L45.4965 83.7985C45.3194 84.4924 45.623 85.2218 46.2151 85.5308C48.4871 86.7262 54.5037 89.4462 63.3693 89.4462C72.2399 89.4462 78.2515 86.7262 80.5236 85.5308C81.1156 85.2218 81.4192 84.4924 81.2421 83.7985Z" fill="#EF6843" stroke="#414042" stroke-miterlimit="10" stroke-linecap="round" stroke-linejoin="round"/>
<path d="M110.571 137.702H108.051" stroke="#414042" stroke-miterlimit="10" stroke-linecap="round" stroke-linejoin="round"/>
<path d="M49.2661 23.938C50.2731 25.6095 52.0897 26.6478 53.957 27.2101C59.1538 28.76 65.211 26.7897 68.4951 22.4741" stroke="#414042" stroke-miterlimit="10" stroke-linecap="round" stroke-linejoin="round"/>
<path d="M45.8657 32.2905C48.2795 32.8122 50.8906 32.3361 52.9653 30.9938C55.04 29.6515 56.5429 27.4634 57.059 25.0422C57.5144 22.8996 57.1298 20.4683 55.5915 18.9032C54.0583 17.3381 51.26 17.0038 49.6812 18.5284" stroke="#414042" stroke-miterlimit="10" stroke-linecap="round" stroke-linejoin="round"/>
<path d="M64.8567 16.8671L79.3391 7.97259C79.8704 7.64842 80.5181 8.14481 80.3461 8.7425L76.3131 22.6667C76.1967 23.0719 75.7463 23.2745 75.3668 23.0922L71.5514 21.2586C71.2629 21.1218 71.1111 20.7976 71.187 20.4887L71.5868 18.8425C71.7285 18.26 71.0959 17.794 70.5798 18.0979L68.3837 19.3997C68.1863 19.5162 67.9485 19.5263 67.741 19.425L64.9174 18.0675C64.4316 17.8244 64.3962 17.1456 64.8567 16.8671Z" fill="#414042"/>
<path d="M57.7772 60.9832C57.8508 59.9844 57.2146 59.1234 56.3562 59.0599C55.4977 58.9965 54.7421 59.7548 54.6685 60.7536C54.5949 61.7523 55.2311 62.6134 56.0895 62.6768C56.9479 62.7402 57.7036 61.982 57.7772 60.9832Z" fill="#414042"/>
<path d="M71.3706 62.6565C72.2233 62.5395 72.8045 61.6403 72.6686 60.6481C72.5327 59.656 71.7313 58.9465 70.8785 59.0635C70.0258 59.1805 69.4446 60.0797 69.5805 61.0719C69.7164 62.064 70.5178 62.7735 71.3706 62.6565Z" fill="#414042"/>
<path d="M59.1284 67.21C59.1284 67.21 59.9178 69.7983 63.3841 67.7165C63.3841 67.7165 66.6328 69.7324 67.5993 67.2859" stroke="#414042" stroke-miterlimit="10" stroke-linecap="round" stroke-linejoin="round"/>
<path d="M65.3728 64.4494C65.9042 63.7302 65.8789 63.0666 65.0186 62.8286C64.29 62.626 62.5745 62.6614 61.9116 62.8184C61.0362 63.0261 60.6668 63.6542 61.4562 64.571C62.1748 65.4068 63.0553 65.8981 63.0553 65.8981C63.2931 66.0804 63.622 66.0804 63.8598 65.8981C63.8598 65.8981 64.8871 65.1028 65.3728 64.4494Z" fill="#414042"/>
<path d="M63.3794 67.7165V65.4727" stroke="#414042" stroke-miterlimit="10" stroke-linecap="round" stroke-linejoin="round"/>
<path d="M50.3085 153.789C50.3085 156.053 47.323 156.874 43.6391 156.874C39.9553 156.874 36.9697 156.053 36.9697 153.789C36.9697 151.525 39.9553 148.678 43.6391 148.678C47.323 148.678 50.3085 151.525 50.3085 153.789Z" fill="white"/>
<path d="M48.6793 156.033C47.4547 156.626 45.6482 156.869 43.6343 156.869C39.9504 156.869 36.9648 156.049 36.9648 153.784C36.9648 152.711 37.6379 151.505 38.7359 150.538" stroke="#414042" stroke-miterlimit="10" stroke-linecap="round" stroke-linejoin="round"/>
<path d="M38.8423 150.538C39.3483 150.669 40.0618 150.806 40.8917 150.836" stroke="#414042" stroke-miterlimit="10" stroke-linecap="round" stroke-linejoin="round"/>
<path d="M40.1328 153.06C39.7331 153.724 39.5509 154.514 39.6167 155.289C39.6521 155.724 39.7685 156.15 39.9507 156.545" stroke="#414042" stroke-miterlimit="10" stroke-linecap="round" stroke-linejoin="round"/>
<path d="M43.9733 153.328C43.5837 154.488 43.5837 155.719 43.9936 156.869" stroke="#414042" stroke-miterlimit="10" stroke-linecap="round" stroke-linejoin="round"/>
<path d="M76.2983 153.789C76.2983 156.053 79.2839 156.874 82.9678 156.874C86.6516 156.874 89.6372 156.053 89.6372 153.789C89.6372 151.525 86.6516 148.678 82.9678 148.678C79.2839 148.678 76.2983 151.525 76.2983 153.789Z" fill="white"/>
<path d="M76.2983 153.789C76.2983 156.053 79.2839 156.874 82.9678 156.874C86.6516 156.874 89.6372 156.053 89.6372 153.789C89.6372 152.715 88.9641 151.51 87.8661 150.542" stroke="#414042" stroke-miterlimit="10" stroke-linecap="round" stroke-linejoin="round"/>
<path d="M86.4746 153.06C86.8744 153.724 87.0565 154.514 86.9908 155.289C86.9553 155.724 86.8389 156.15 86.6568 156.545" stroke="#414042" stroke-miterlimit="10" stroke-linecap="round" stroke-linejoin="round"/>
<path d="M82.6286 153.328C83.0183 154.488 83.0183 155.719 82.6084 156.869" stroke="#414042" stroke-miterlimit="10" stroke-linecap="round" stroke-linejoin="round"/>
<path d="M74.6134 120.876C74.8411 125.748 74.9525 132.414 74.3958 138.472C73.905 143.816 72.3464 148.881 69.8973 153.146L69.2648 154.245C69.2648 154.245 67.4937 158.626 75.084 158.039C76.9816 157.892 78.7122 156.504 79.7192 154.331C82.1178 149.15 86.3026 138.568 86.3532 127.785C86.4241 112.665 75.924 105.847 74.1428 113.789" fill="white"/>
<path d="M74.1427 113.795C74.1427 113.795 75.4381 127.177 74.4007 138.472C73.9099 143.816 72.3513 148.881 69.9022 153.146L69.2696 154.245C69.2696 154.245 67.4985 158.627 75.0889 158.039C76.9865 157.892 78.7171 156.504 79.7241 154.331C82.1227 149.15 86.3075 138.569 86.3581 127.785C86.4239 112.67 75.9239 105.847 74.1427 113.795Z" fill="white"/>
<path d="M74.7145 133.377C74.6538 135.089 74.5475 136.806 74.3957 138.472C73.9049 143.816 72.3463 148.881 69.8972 153.146L69.4974 153.84C69.209 154.341 69.047 154.919 69.0926 155.496C69.1938 156.742 70.2008 158.419 75.0839 158.039C76.9815 157.892 78.7121 156.504 79.7191 154.331C82.1177 149.15 86.3025 138.568 86.3531 127.785" stroke="#414042" stroke-miterlimit="10" stroke-linecap="round" stroke-linejoin="round"/>
<path d="M71.9868 154.068C71.9868 154.068 70.5042 155.729 70.6104 157.543" stroke="#414042" stroke-miterlimit="10" stroke-linecap="round" stroke-linejoin="round"/>
<path d="M75.6455 154.422C75.6455 154.422 74.1629 156.084 74.2691 157.897" stroke="#414042" stroke-miterlimit="10" stroke-linecap="round" stroke-linejoin="round"/>
<path d="M74.8057 129.826C74.8057 130.094 74.8057 130.358 74.8107 130.626" stroke="#414042" stroke-miterlimit="10" stroke-linecap="round" stroke-linejoin="round"/>
<path d="M63.197 114.909C64.6088 115.922 66.9467 118.744 66.4204 121.59C65.6259 125.885 61.9117 125.354 57.5903 121.702C54.7717 119.321 53.9368 125.703 48.0365 125.576C42.197 125.45 40.8965 119.863 40.8965 119.863" stroke="#414042" stroke-miterlimit="10" stroke-linecap="round" stroke-linejoin="round"/>
<path d="M62.124 121.306C62.124 121.306 63.6168 122.785 63.0754 124.36" stroke="#414042" stroke-miterlimit="10" stroke-linecap="round" stroke-linejoin="round"/>
<path d="M64.9277 120.288C64.9277 120.288 66.0056 121.139 65.874 123.125" stroke="#414042" stroke-miterlimit="10" stroke-linecap="round" stroke-linejoin="round"/>
<path d="M53.7848 104.024C53.6836 108.243 53.1371 110.32 52.4438 113.253" stroke="#414042" stroke-miterlimit="10" stroke-linecap="round" stroke-linejoin="round"/>
<path d="M51.0576 114.038C53.9875 111.971 58.0053 112.128 59.1793 112.67" stroke="#414042" stroke-miterlimit="10" stroke-linecap="round" stroke-linejoin="round"/>
<path d="M60.4238 113.172C60.5706 113.258 60.7123 113.339 60.859 113.425" stroke="#414042" stroke-miterlimit="10" stroke-linecap="round" stroke-linejoin="round"/>
<path d="M43.7153 141.106C44.4642 144.079 45.6888 146.931 47.3385 149.514" stroke="#414042" stroke-miterlimit="10" stroke-linecap="round" stroke-linejoin="round"/>
</svg>
