<svg width="73" height="20" viewBox="0 0 73 20" fill="none" xmlns="http://www.w3.org/2000/svg">
<path d="M20.3365 0.0146484H13.5625V6.64103H20.3365V0.0146484Z" fill="white"/>
<path opacity="0.35" d="M13.5483 19.9973H17.1346C17.1346 19.9973 19.8943 20.1744 20.3223 17.5179L20.3371 13.2676H13.5631L13.5483 19.9973Z" fill="white"/>
<path d="M25.7536 1.17945C24.5582 0.412032 23.1709 0.0283203 21.7394 0.0283203H20.2783L20.3078 13.2811H22.1083C22.7282 13.2811 23.348 13.1778 23.9383 12.9712C25.6207 12.3808 28.5428 10.8312 28.6019 6.69898C28.6462 3.77687 27.1999 2.10921 25.7536 1.17945Z" fill="white"/>
<path opacity="0.35" d="M6.77396 6.62638H3.61573C1.62339 6.62638 0 5.00299 0 3.01065V0H6.77396V6.62638Z" fill="white"/>
<path opacity="0.7" d="M13.5483 6.64062V13.267H20.3223L20.3075 6.64062H13.5483Z" fill="white"/>
<path opacity="0.5" d="M6.77393 9.6376C6.77393 11.6299 8.39732 13.2533 10.3897 13.2533H13.5479V6.62695H6.77393V9.6376Z" fill="white"/>
<path opacity="0.7" d="M13.5479 0.0146484H6.77393V6.64103H13.5479V0.0146484Z" fill="white"/>
<path d="M34 16.3248V3.5H38.9587C40.1689 3.5 41.1429 3.88371 41.8956 4.65113C42.6482 5.41855 43.0319 6.4221 43.0319 7.66178C43.0319 8.90146 42.6482 9.91977 41.8956 10.7019C41.1429 11.4841 40.1541 11.8826 38.9587 11.8826H36.3465V16.31H34V16.3248ZM36.3318 9.8755H38.516C39.1948 9.8755 39.7114 9.68364 40.0951 9.28517C40.4788 8.8867 40.6707 8.35541 40.6707 7.67654C40.6707 7.01242 40.4788 6.48113 40.0951 6.09742C39.7114 5.71371 39.1948 5.5071 38.5455 5.5071H36.3318V9.8755Z" fill="white"/>
<path d="M44.6997 5.55127V3.51465H46.9872V5.55127H44.6997ZM44.6997 16.3247V7.11562H46.9872V16.3247H44.6997Z" fill="white"/>
<path d="M48.4922 16.3253L51.5324 11.6617L48.566 7.11621H51.1634L52.5949 9.62509L52.8901 10.2007H52.9196C53.0377 9.97928 53.141 9.77267 53.2295 9.62509L54.6611 7.11621H57.2585L54.2921 11.6617L57.347 16.3253H54.7791L53.1853 13.654L52.9196 13.167H52.8901C52.8015 13.3589 52.7278 13.5212 52.6392 13.654L51.0453 16.3253H48.4922Z" fill="white"/>
<path d="M57.9521 11.7204C57.9521 10.3037 58.3949 9.13776 59.2656 8.23752C60.1363 7.33727 61.2727 6.89453 62.6452 6.89453C63.9144 6.89453 64.918 7.30776 65.6411 8.13421C66.3643 8.96066 66.7184 10.0085 66.7184 11.2629C66.7184 11.4695 66.6889 11.7647 66.6447 12.1484H60.3134C60.3872 12.9158 60.6824 13.5209 61.1989 13.9489C61.7155 14.3769 62.3353 14.5835 63.0732 14.5835C63.9882 14.5835 64.8737 14.2441 65.7149 13.5652L66.6151 15.2033C66.1576 15.6166 65.5968 15.9412 64.9327 16.1626C64.2686 16.3987 63.5897 16.5168 62.9256 16.5168C61.4498 16.5168 60.2544 16.0445 59.3394 15.1148C58.4097 14.2145 57.9521 13.0782 57.9521 11.7204ZM60.3725 10.5841H64.431C64.4162 9.97897 64.2391 9.50671 63.8997 9.15252C63.5602 8.79832 63.1175 8.63599 62.5862 8.63599C62.0106 8.63599 61.5236 8.81308 61.1251 9.16728C60.7267 9.52147 60.4758 9.99373 60.3725 10.5841Z" fill="white"/>
<path d="M68.6372 13.4616V3.51465H70.91V13.1222C70.91 13.6092 70.9837 13.9339 71.1313 14.111C71.2789 14.2881 71.515 14.3766 71.8397 14.3766C71.9873 14.3766 72.1054 14.3766 72.1791 14.3618V16.3689C71.8545 16.3985 71.6183 16.428 71.456 16.428C71.087 16.428 70.7476 16.3985 70.4672 16.3247C70.172 16.2656 69.8769 16.1328 69.5817 15.941C69.2866 15.7491 69.0504 15.4539 68.8733 15.026C68.7257 14.6127 68.6372 14.0814 68.6372 13.4616Z" fill="white"/>
</svg>
