<svg xmlns="http://www.w3.org/2000/svg" viewBox="0 0 400 400"><defs><style>.cls-1,.cls-3,.cls-4,.cls-5,.cls-6{fill:#fff;}.cls-2{fill:#438ecc;}.cls-3{opacity:0.6;}.cls-4{opacity:0.3;}.cls-5{opacity:0.1;}.cls-6{opacity:0.45;}</style></defs><title>Asset 4</title><g id="Layer_2" data-name="Layer 2"><g id="Слой_1" data-name="Слой 1"><rect class="cls-1" width="400" height="400"/><path class="cls-2" d="M298.12,69.14H14.64v43.67a43.62,43.62,0,0,0,43.67,43.57h43.57v43.67a43.62,43.62,0,0,0,43.67,43.57h43.57v87.24h43.7a43.54,43.54,0,0,0,43.58-43.57c0-.11,0-.21,0-.32V243.62h21.76a87.24,87.24,0,0,0,0-174.48Z"/><path class="cls-3" d="M101.88,69.14v87.24H58.31a43.62,43.62,0,0,1-43.67-43.57V69.14Z"/><rect class="cls-4" x="101.88" y="69.14" width="87.24" height="87.24"/><rect class="cls-5" x="189.12" y="69.14" width="87.24" height="87.24"/><path class="cls-6" d="M189.12,156.38v87.24H145.55a43.62,43.62,0,0,1-43.67-43.57V156.38Z"/></g></g></svg>