<svg width="26" height="26" viewBox="0 0 26 26" fill="none" xmlns="http://www.w3.org/2000/svg">
<path d="M20.8307 9.73164C20.8307 9.73164 20.6646 8.49063 20.1533 7.9457C19.5059 7.22852 18.782 7.225 18.45 7.18281C16.0727 7 12.5033 7 12.5033 7H12.4967C12.4967 7 8.92734 7 6.55 7.18281C6.21797 7.225 5.49414 7.22852 4.84668 7.9457C4.33535 8.49063 4.17266 9.73164 4.17266 9.73164C4.17266 9.73164 4 11.1906 4 12.6461V14.0102C4 15.4656 4.16934 16.9246 4.16934 16.9246C4.16934 16.9246 4.33535 18.1656 4.84336 18.7105C5.49082 19.4277 6.34082 19.4031 6.71934 19.4805C8.08066 19.6176 12.5 19.6598 12.5 19.6598C12.5 19.6598 16.0727 19.6527 18.45 19.4734C18.782 19.4313 19.5059 19.4277 20.1533 18.7105C20.6646 18.1656 20.8307 16.9246 20.8307 16.9246C20.8307 16.9246 21 15.4691 21 14.0102V12.6461C21 11.1906 20.8307 9.73164 20.8307 9.73164ZM10.7436 15.666V10.607L15.3355 13.1453L10.7436 15.666Z" fill="white"/>
</svg>
