<svg width="34" height="32" viewBox="0 0 34 32" fill="none" xmlns="http://www.w3.org/2000/svg">
<path d="M30.2305 28.4979L10.2551 31.0946C8.53956 31.3196 6.94101 30.1885 6.70708 28.583L3.93234 9.88902C3.6919 8.28354 4.90057 6.78754 6.61609 6.56861L26.5916 3.97188C28.3071 3.74688 29.9056 4.878 30.1396 6.48347L32.9143 25.1775C33.1547 26.783 31.9461 28.279 30.2305 28.4979Z" fill="#F9AB64" stroke="white" stroke-width="0.488839" stroke-miterlimit="10" stroke-linecap="round" stroke-linejoin="round"/>
<path d="M26.7999 25.5174L6.82442 28.1141C5.1089 28.3392 3.51035 27.208 3.27641 25.6026L0.501672 6.90856C0.261239 5.30308 1.46991 3.80707 3.18543 3.58815L23.1609 0.991416C24.8764 0.766406 26.475 1.89754 26.7089 3.50301L29.4836 22.197C29.7241 23.7964 28.5154 25.2924 26.7999 25.5174Z" fill="#F9AB64" stroke="white" stroke-width="0.488839" stroke-miterlimit="10" stroke-linecap="round" stroke-linejoin="round"/>
<path d="M18.2805 18.902C18.4429 19.3216 18.2805 19.5344 17.7996 19.5344H16.0126C15.1678 19.5344 14.9079 19.3824 14.7714 18.8837L14.3945 17.7708H10.827L10.4501 18.8837C10.2682 19.3763 10.0343 19.5344 9.24147 19.5344H7.50645C7.04508 19.5344 6.89564 19.3155 7.05809 18.902L10.8595 9.09886C11.009 8.66708 11.2039 8.55762 11.7173 8.55762H13.6018C14.0826 8.55762 14.3101 8.67924 14.4595 9.06845L18.2805 18.902ZM13.0429 13.5321C12.8415 12.9118 12.7115 12.097 12.6985 11.6773L12.679 11.3672H12.5166C12.5361 12.1091 12.4191 12.8206 12.2047 13.5139L11.5938 15.3383H13.6602L13.0429 13.5321Z" fill="white"/>
<path d="M20.7432 8.36914C21.6659 8.36914 21.9648 8.64888 21.9648 9.51243V9.68271C21.9648 10.5463 21.6659 10.826 20.7432 10.826H19.9179C18.9757 10.826 18.6768 10.5463 18.6768 9.68271V9.51243C18.6768 8.64888 18.9757 8.36914 19.9179 8.36914H20.7432ZM21.2241 11.495C21.7049 11.495 21.8674 11.647 21.8674 12.0848V18.9506C21.8674 19.3824 21.7049 19.5405 21.2241 19.5405H19.4241C18.9432 19.5405 18.7807 19.3885 18.7807 18.9506V12.0848C18.7807 11.6531 18.9432 11.495 19.4241 11.495H21.2241Z" fill="white"/>
</svg>
