<svg width="330" height="312" viewBox="0 0 330 312" fill="none" xmlns="http://www.w3.org/2000/svg">
<g clip-path="url(#clip0_337_6025)">
<path opacity="0.28" d="M346.03 255.013V280.633C346.03 286.613 341.04 291.453 334.88 291.453H133.04C126.88 291.453 121.89 286.603 121.89 280.633V84.7731C121.89 78.7931 126.88 73.9531 133.04 73.9531H334.88C341.04 73.9531 346.03 78.8031 346.03 84.7731V223.823" stroke="white" stroke-width="0.75" stroke-miterlimit="10" stroke-linecap="round" stroke-linejoin="round"/>
<path d="M294.82 321.703H94.9998C88.8198 321.703 83.7998 316.693 83.7998 310.503V133.313C83.7998 127.133 88.8098 122.113 94.9998 122.113H294.82C301 122.113 306.02 127.123 306.02 133.313V310.503C306.02 316.683 301.01 321.703 294.82 321.703Z" fill="#F9AB64"/>
<path d="M294.82 321.703H94.9998C88.8198 321.703 83.7998 316.693 83.7998 310.503V133.313C83.7998 127.133 88.8098 122.113 94.9998 122.113H294.82C301 122.113 306.02 127.123 306.02 133.313V310.503C306.02 316.683 301.01 321.703 294.82 321.703Z" stroke="white" stroke-width="0.75" stroke-linecap="round" stroke-linejoin="round" stroke-dasharray="7.49 7.49"/>
<path d="M185.98 111.073C185.98 111.073 176.84 144.393 189.85 185.463C198.51 212.783 246.09 200.163 275.85 193.833C289.27 190.973 288.17 180.233 285.59 166.763C281.38 144.803 269.17 123.873 256.8 106.653C259.46 64.0632 181.25 91.9832 185.98 111.073Z" fill="#F1F2F2"/>
<path d="M185.98 111.073C185.98 111.073 176.84 144.393 189.85 185.463C198.51 212.783 246.09 200.163 275.85 193.833C289.27 190.973 288.17 180.233 285.59 166.763C281.38 144.803 269.17 123.873 256.8 106.653C259.46 64.0632 181.25 91.9832 185.98 111.073Z" stroke="#414042" stroke-width="1.1809" stroke-miterlimit="10" stroke-linecap="round" stroke-linejoin="round"/>
<path d="M183.82 111.242C183.82 111.242 174.86 135.742 211.22 135.512C247.58 135.282 265.78 111.812 258.59 98.8524C252.33 87.5624 184.5 93.7825 183.82 111.242Z" fill="#EF6843"/>
<path d="M182.97 123.313C185.26 129.463 192.19 135.513 210.83 135.513C232.6 135.513 246.03 127.543 255.95 116.883" stroke="#414042" stroke-width="1.1809" stroke-miterlimit="10" stroke-linecap="round" stroke-linejoin="round"/>
<path d="M257.78 114.183C257.93 113.833 258.08 113.493 258.23 113.143" stroke="#414042" stroke-width="1.1809" stroke-miterlimit="10" stroke-linecap="round" stroke-linejoin="round"/>
<path d="M239.3 21.8729C236.13 21.6829 226.91 36.7729 226.4 59.5329L257.57 63.5229C257.58 63.5229 249.88 22.4929 239.3 21.8729Z" fill="#F1F2F2" stroke="#414042" stroke-width="1.1809" stroke-miterlimit="10" stroke-linecap="round" stroke-linejoin="round"/>
<path d="M190.45 19.0229C187.31 19.5329 178.06 33.9229 177.55 56.6829L206 45.2329C206 45.2229 196.13 18.1029 190.45 19.0229Z" fill="#F1F2F2" stroke="#414042" stroke-width="1.1809" stroke-miterlimit="10" stroke-linecap="round" stroke-linejoin="round"/>
<path d="M267.15 92.0626C263.29 111.703 237.87 127.203 209.81 125.573C188.15 124.303 168.12 112.423 161.91 98.1226C159.29 92.0826 159.14 85.2626 161.15 78.9926C167.2 60.1126 185.4 39.4926 217.31 42.5926C257.88 46.5326 268.22 73.8326 267.15 92.0626Z" fill="#F1F2F2"/>
<path d="M209.56 125.563C230.6 126.793 250.16 118.383 260.26 105.813C263.62 101.623 265.94 96.973 266.9 92.063C268.06 79.933 264.85 70.283 256.28 60.373" stroke="#414042" stroke-width="1.1809" stroke-miterlimit="10" stroke-linecap="round" stroke-linejoin="round"/>
<path d="M189.35 28.7628C191.57 28.3828 193.92 35.9328 195.94 41.4028C196.45 42.7928 195.7 44.3228 194.31 44.7428C194.31 44.7428 187.18 47.7528 181.85 51.7628C171.49 59.5528 163.03 70.2228 160.1 80.9128C159.52 83.0428 159.11 86.5928 159.28 88.7928C160.38 103.043 175.62 116.673 193.74 122.593" stroke="#414042" stroke-width="1.1809" stroke-miterlimit="10" stroke-linecap="round" stroke-linejoin="round"/>
<path d="M245.61 51.3828C245.61 51.3828 244.03 32.2928 238.77 31.6328" stroke="#414042" stroke-width="1.1809" stroke-miterlimit="10" stroke-linecap="round" stroke-linejoin="round"/>
<path d="M232.13 45.5127C236.3 46.7827 240.42 48.4827 245.61 51.3827" stroke="#414042" stroke-width="1.1809" stroke-miterlimit="10" stroke-linecap="round" stroke-linejoin="round"/>
<path d="M228.12 44.3728C222.95 43.0828 219.06 42.7828 217.05 42.5928C212.27 42.1328 207.86 42.1928 203.8 42.7128" stroke="#414042" stroke-width="1.1809" stroke-miterlimit="10" stroke-linecap="round" stroke-linejoin="round"/>
<path d="M221.602 85.5305C223.458 85.5021 224.935 83.7287 224.902 81.5695C224.869 79.4103 223.338 77.6829 221.483 77.7113C219.627 77.7397 218.15 79.5131 218.183 81.6723C218.216 83.8315 219.747 85.5589 221.602 85.5305Z" fill="#414042"/>
<path d="M200.75 92.6025C200.75 92.6025 200.61 94.0525 200.8 95.7025" stroke="#414042" stroke-width="1.1809" stroke-miterlimit="10" stroke-linecap="round" stroke-linejoin="round"/>
<path d="M153.72 89.6328L146.33 91.2128" stroke="#414042" stroke-width="1.1809" stroke-miterlimit="10" stroke-linecap="round" stroke-linejoin="round"/>
<path d="M155.83 96.9131L148.95 100.263" stroke="#414042" stroke-width="1.1809" stroke-miterlimit="10" stroke-linecap="round" stroke-linejoin="round"/>
<path d="M272.55 90.7227L280.1 90.8227" stroke="#414042" stroke-width="1.1809" stroke-miterlimit="10" stroke-linecap="round" stroke-linejoin="round"/>
<path d="M271.92 98.2832L280.2 100.263" stroke="#414042" stroke-width="1.1809" stroke-miterlimit="10" stroke-linecap="round" stroke-linejoin="round"/>
<path d="M196.92 88.793C195.95 87.133 196.15 85.723 198.06 85.413C199.66 85.153 203.34 85.623 204.72 86.113C206.55 86.763 207.19 88.193 205.29 89.973C203.56 91.593 201.56 92.443 201.56 92.443C201.01 92.773 200.3 92.703 199.84 92.253C199.83 92.243 197.8 90.303 196.92 88.793Z" fill="#FF9CAF"/>
<path d="M196.92 88.793C195.95 87.133 196.15 85.723 198.06 85.413C199.66 85.153 203.34 85.623 204.72 86.113C206.55 86.763 207.19 88.193 205.29 89.973C203.56 91.593 201.56 92.443 201.56 92.443C201.01 92.773 200.3 92.703 199.84 92.253C199.83 92.243 197.8 90.303 196.92 88.793Z" fill="#414042"/>
<path d="M182.09 119.533L182.12 119.773" stroke="#414042" stroke-width="1.1809" stroke-miterlimit="10" stroke-linecap="round" stroke-linejoin="round"/>
<path d="M212.26 93.0829C210.61 96.3329 208.63 98.0829 206.36 98.2829C206.21 98.2929 206.07 98.3029 205.93 98.3029C203.52 98.3029 201.54 96.5429 200.63 95.5629C198.28 97.6129 196.26 98.3529 194.61 97.7329C191.95 96.7429 191.5 92.6729 191.49 92.5029" stroke="#414042" stroke-width="1.1809" stroke-miterlimit="10" stroke-linecap="round" stroke-linejoin="round"/>
<path d="M170.86 73.7525C170.86 73.7525 180.5 73.2125 186.33 80.8225" stroke="#D1D3D4" stroke-width="1.1809" stroke-miterlimit="10" stroke-linecap="round" stroke-linejoin="round"/>
<path d="M191.43 79.4333C187.87 73.8333 183.93 77.0333 183.93 77.0333" stroke="#414042" stroke-width="1.1809" stroke-miterlimit="10" stroke-linecap="round" stroke-linejoin="round"/>
<path d="M303.67 271.022H11.2C5.02 271.022 0 266.012 0 259.822V162.842C0 162.372 0.379999 161.982 0.859999 161.982H314C314.47 161.982 314.86 162.362 314.86 162.842V259.822C314.87 266.012 309.85 271.022 303.67 271.022Z" fill="white" stroke="#414042" stroke-miterlimit="10" stroke-linecap="round" stroke-linejoin="round"/>
<path d="M304.39 148.403H10.48C4.69 148.403 0 153.093 0 158.883V172.653H314.86V158.883C314.87 153.093 310.17 148.403 304.39 148.403Z" fill="#414042" stroke="#414042" stroke-miterlimit="10"/>
<path d="M280.44 148.462C280.44 148.462 275.3 148.492 272.61 148.312C268.42 148.032 263.57 148.712 260.93 151.962C249.77 166.642 239.7 163.882 235.43 159.512C232.86 156.882 232.3 151.802 237.75 147.352C241.89 143.962 243.06 137.552 249.38 135.102C262.24 130.102 275.37 136.162 280.44 148.462Z" fill="#F1F2F2"/>
<path d="M241.02 150.622C241.02 150.622 234.87 155.112 236.97 160.732" stroke="#414042" stroke-width="1.1809" stroke-miterlimit="10" stroke-linecap="round" stroke-linejoin="round"/>
<path d="M248.19 151.973C248.19 151.973 241.64 155.743 243.32 162.163" stroke="#414042" stroke-width="1.1809" stroke-miterlimit="10" stroke-linecap="round" stroke-linejoin="round"/>
<path d="M272.61 148.312C268.37 147.992 264.02 147.912 260.93 151.962C249.77 166.642 239.7 163.882 235.43 159.512C232.86 156.882 232.72 152.272 237.75 147.352C242.48 142.712 243.47 137.842 249.67 135.102C262.45 129.442 275.37 135.892 280.44 148.192" stroke="#414042" stroke-width="1.1809" stroke-miterlimit="10" stroke-linecap="round" stroke-linejoin="round"/>
<path d="M183.56 148.462C183.56 148.462 179.76 148.352 175.83 148.382C170.99 148.422 165.68 148.842 163.76 151.962C152.6 166.642 142.53 163.882 138.26 159.512C135.69 156.882 135.13 151.802 140.58 147.352C144.72 143.962 145.89 137.552 152.21 135.102C165.05 130.102 178.49 136.162 183.56 148.462Z" fill="#F1F2F2"/>
<path d="M143.84 150.622C143.84 150.622 137.69 155.112 139.79 160.732" stroke="#414042" stroke-width="1.1809" stroke-miterlimit="10" stroke-linecap="round" stroke-linejoin="round"/>
<path d="M151.01 151.973C151.01 151.973 144.46 155.743 146.14 162.163" stroke="#414042" stroke-width="1.1809" stroke-miterlimit="10" stroke-linecap="round" stroke-linejoin="round"/>
<path d="M175.43 148.312C171.19 147.992 166.84 147.912 163.75 151.962C152.59 166.642 142.52 163.882 138.25 159.512C135.68 156.882 135.54 152.272 140.57 147.352C145.3 142.712 146.29 137.842 152.49 135.102C165.27 129.442 178.19 135.892 183.26 148.192" stroke="#414042" stroke-width="1.1809" stroke-miterlimit="10" stroke-linecap="round" stroke-linejoin="round"/>
<path d="M166.86 83.4025L143.35 69.0725H155.11L157.37 57.3125L166.86 83.4025Z" fill="white" stroke="#414042" stroke-width="1.1809" stroke-miterlimit="10" stroke-linecap="round" stroke-linejoin="round"/>
<path d="M12.6898 163.493C14.413 163.493 15.8098 162.096 15.8098 160.373C15.8098 158.65 14.413 157.253 12.6898 157.253C10.9667 157.253 9.56982 158.65 9.56982 160.373C9.56982 162.096 10.9667 163.493 12.6898 163.493Z" stroke="#F9AB64" stroke-width="1.1809" stroke-miterlimit="10"/>
<path d="M134.61 58.9521C132.42 58.9421 130.24 58.6021 128.15 57.9521" stroke="white" stroke-width="0.7872" stroke-miterlimit="10" stroke-linecap="round" stroke-linejoin="round"/>
<path d="M138.73 53.2727C137.15 51.2727 135.45 49.3627 133.64 47.5527" stroke="white" stroke-width="0.7872" stroke-miterlimit="10" stroke-linecap="round" stroke-linejoin="round"/>
<path d="M146.36 48.7425C146.05 47.1025 145.74 45.4525 145.43 43.8125" stroke="white" stroke-width="0.7872" stroke-miterlimit="10" stroke-linecap="round" stroke-linejoin="round"/>
<path d="M89.2617 204.423C89.5884 204.404 89.9291 204.381 90.2837 204.353C90.6477 204.325 91.0957 204.311 91.6277 204.311C92.5517 204.311 93.2144 204.455 93.6157 204.745C94.0171 205.025 94.2177 205.454 94.2177 206.033C94.2177 206.359 94.1197 206.681 93.9237 206.999C93.7371 207.307 93.4244 207.535 92.9857 207.685V207.741C93.5364 207.843 93.9237 208.035 94.1477 208.315C94.3717 208.595 94.4837 208.968 94.4837 209.435C94.4837 210.163 94.2224 210.69 93.6997 211.017C93.1771 211.343 92.3931 211.507 91.3477 211.507C90.9557 211.507 90.5917 211.493 90.2557 211.465C89.9197 211.446 89.5884 211.423 89.2617 211.395V204.423ZM90.3817 210.471C90.5591 210.489 90.7317 210.503 90.8997 210.513C91.0771 210.522 91.2824 210.527 91.5157 210.527C92.1411 210.527 92.6031 210.438 92.9017 210.261C93.2097 210.083 93.3637 209.78 93.3637 209.351C93.3637 209.015 93.2331 208.744 92.9717 208.539C92.7197 208.324 92.2671 208.217 91.6137 208.217H90.3817V210.471ZM91.7537 207.363C91.9217 207.363 92.0851 207.335 92.2437 207.279C92.4024 207.223 92.5424 207.148 92.6637 207.055C92.7944 206.952 92.8971 206.835 92.9717 206.705C93.0557 206.574 93.0977 206.434 93.0977 206.285C93.0977 205.911 92.9857 205.655 92.7617 205.515C92.5377 205.365 92.1457 205.291 91.5857 205.291C91.2871 205.291 91.0491 205.295 90.8717 205.305C90.7037 205.314 90.5404 205.323 90.3817 205.333V207.363H91.7537Z" fill="#414143"/>
<path d="M81.2939 207.908C81.2939 206.723 81.5553 205.818 82.0779 205.192C82.6099 204.558 83.3706 204.24 84.3599 204.24C84.8826 204.24 85.3353 204.329 85.7179 204.506C86.1099 204.674 86.4319 204.922 86.6839 205.248C86.9359 205.566 87.1226 205.953 87.2439 206.41C87.3653 206.858 87.4259 207.358 87.4259 207.908C87.4259 209.094 87.1599 210.004 86.6279 210.638C86.1053 211.264 85.3493 211.576 84.3599 211.576C83.8373 211.576 83.3799 211.492 82.9879 211.324C82.6053 211.147 82.2879 210.9 82.0359 210.582C81.7839 210.256 81.5973 209.868 81.4759 209.42C81.3546 208.963 81.2939 208.459 81.2939 207.908ZM82.4559 207.908C82.4559 208.263 82.4886 208.604 82.5539 208.93C82.6286 209.257 82.7406 209.542 82.8899 209.784C83.0393 210.027 83.2353 210.223 83.4779 210.372C83.7206 210.522 84.0146 210.596 84.3599 210.596C85.6293 210.606 86.2639 209.71 86.2639 207.908C86.2639 207.544 86.2266 207.199 86.1519 206.872C86.0866 206.546 85.9793 206.261 85.8299 206.018C85.6806 205.776 85.4846 205.584 85.2419 205.444C84.9993 205.295 84.7053 205.22 84.3599 205.22C83.0906 205.211 82.4559 206.107 82.4559 207.908Z" fill="#414143"/>
<path d="M76.8451 208.258H76.2011V211.408H75.0811V204.408H76.2011V207.572L76.8031 207.376L79.0431 204.408H80.2611L78.0911 207.222L77.5031 207.684L78.2311 208.244L80.5691 211.408H79.1831L76.8451 208.258Z" fill="#414143"/>
<path d="M67.1128 207.908C67.1128 206.723 67.3741 205.818 67.8968 205.192C68.4288 204.558 69.1895 204.24 70.1788 204.24C70.7015 204.24 71.1541 204.329 71.5368 204.506C71.9288 204.674 72.2508 204.922 72.5028 205.248C72.7548 205.566 72.9415 205.953 73.0628 206.41C73.1841 206.858 73.2448 207.358 73.2448 207.908C73.2448 209.094 72.9788 210.004 72.4468 210.638C71.9241 211.264 71.1681 211.576 70.1788 211.576C69.6561 211.576 69.1988 211.492 68.8068 211.324C68.4241 211.147 68.1068 210.9 67.8548 210.582C67.6028 210.256 67.4161 209.868 67.2948 209.42C67.1735 208.963 67.1128 208.459 67.1128 207.908ZM68.2748 207.908C68.2748 208.263 68.3075 208.604 68.3728 208.93C68.4475 209.257 68.5595 209.542 68.7088 209.784C68.8581 210.027 69.0541 210.223 69.2968 210.372C69.5395 210.522 69.8335 210.596 70.1788 210.596C71.4481 210.606 72.0828 209.71 72.0828 207.908C72.0828 207.544 72.0455 207.199 71.9708 206.872C71.9055 206.546 71.7981 206.261 71.6488 206.018C71.4995 205.776 71.3035 205.584 71.0608 205.444C70.8181 205.295 70.5241 205.22 70.1788 205.22C68.9095 205.211 68.2748 206.107 68.2748 207.908Z" fill="#414143"/>
<path d="M59.8608 204.408H60.6308L60.8408 205.248H60.8968C61.1115 204.922 61.3868 204.674 61.7228 204.506C62.0682 204.329 62.4602 204.24 62.8988 204.24C63.8322 204.24 64.5275 204.516 64.9848 205.066C65.4422 205.617 65.6708 206.518 65.6708 207.768C65.6708 208.356 65.5915 208.888 65.4328 209.364C65.2835 209.831 65.0688 210.228 64.7888 210.554C64.5088 210.881 64.1682 211.133 63.7668 211.31C63.3748 211.488 62.9362 211.576 62.4508 211.576C62.1055 211.576 61.8302 211.553 61.6248 211.506C61.4288 211.469 61.2142 211.399 60.9808 211.296V214.208H59.8608V204.408ZM62.6888 205.22C62.2128 205.22 61.8348 205.346 61.5548 205.598C61.2842 205.841 61.0928 206.214 60.9808 206.718V210.19C61.1488 210.321 61.3402 210.424 61.5548 210.498C61.7695 210.564 62.0542 210.596 62.4088 210.596C63.0528 210.596 63.5615 210.358 63.9348 209.882C64.3175 209.397 64.5088 208.688 64.5088 207.754C64.5088 207.372 64.4762 207.026 64.4108 206.718C64.3455 206.401 64.2382 206.135 64.0888 205.92C63.9488 205.696 63.7622 205.524 63.5288 205.402C63.3048 205.281 63.0248 205.22 62.6888 205.22Z" fill="#414143"/>
<path d="M55.3274 208.944L55.7194 210.288H55.7894L56.0974 208.93L57.4554 204.408H58.5894L56.5174 210.694C56.3587 211.152 56.2 211.595 56.0414 212.024C55.892 212.454 55.724 212.836 55.5374 213.172C55.3507 213.508 55.1407 213.774 54.9074 213.97C54.674 214.176 54.4034 214.278 54.0954 214.278C53.7594 214.278 53.484 214.232 53.2694 214.138L53.4654 213.172C53.5867 213.219 53.7034 213.242 53.8154 213.242C54.0767 213.242 54.3287 213.102 54.5714 212.822C54.814 212.552 55.0147 212.08 55.1734 211.408L52.3594 204.408H53.6474L55.3274 208.944Z" fill="#414143"/>
<path d="M41.6421 209.07C41.6421 208.482 41.7961 207.974 42.1041 207.544C42.4121 207.106 42.8928 206.709 43.5461 206.354C43.3128 206.214 43.0934 206.07 42.8881 205.92C42.6921 205.762 42.5148 205.584 42.3561 205.388C42.2068 205.192 42.0854 204.973 41.9921 204.73C41.9081 204.488 41.8661 204.208 41.8661 203.89C41.8661 203.526 41.9268 203.195 42.0481 202.896C42.1788 202.598 42.3608 202.341 42.5941 202.126C42.8368 201.912 43.1214 201.744 43.4481 201.622C43.7841 201.501 44.1621 201.44 44.5821 201.44C44.9741 201.44 45.3288 201.496 45.6461 201.608C45.9634 201.72 46.2294 201.874 46.4441 202.07C46.6681 202.266 46.8408 202.5 46.9621 202.77C47.0834 203.041 47.1441 203.34 47.1441 203.666C47.1441 204.198 47.0228 204.67 46.7801 205.08C46.5374 205.482 46.1361 205.878 45.5761 206.27C45.8188 206.41 46.0474 206.564 46.2621 206.732C46.4861 206.9 46.6774 207.087 46.8361 207.292C47.0041 207.498 47.1348 207.731 47.2281 207.992C47.3214 208.244 47.3681 208.534 47.3681 208.86C47.3681 209.262 47.3028 209.63 47.1721 209.966C47.0414 210.293 46.8501 210.578 46.5981 210.82C46.3461 211.054 46.0381 211.24 45.6741 211.38C45.3101 211.511 44.8948 211.576 44.4281 211.576C43.9801 211.576 43.5834 211.511 43.2381 211.38C42.8928 211.25 42.5988 211.072 42.3561 210.848C42.1228 210.624 41.9454 210.363 41.8241 210.064C41.7028 209.756 41.6421 209.425 41.6421 209.07ZM46.2761 208.93C46.2761 208.65 46.2201 208.408 46.1081 208.202C45.9961 207.988 45.8468 207.796 45.6601 207.628C45.4828 207.451 45.2774 207.292 45.0441 207.152C44.8108 207.012 44.5681 206.877 44.3161 206.746C43.7468 207.064 43.3408 207.418 43.0981 207.81C42.8554 208.202 42.7341 208.576 42.7341 208.93C42.7341 209.154 42.7714 209.369 42.8461 209.574C42.9208 209.78 43.0328 209.957 43.1821 210.106C43.3314 210.256 43.5134 210.377 43.7281 210.47C43.9521 210.554 44.2088 210.596 44.4981 210.596C44.7314 210.596 44.9554 210.564 45.1701 210.498C45.3848 210.424 45.5714 210.321 45.7301 210.19C45.8981 210.05 46.0288 209.878 46.1221 209.672C46.2248 209.458 46.2761 209.21 46.2761 208.93ZM42.9581 203.862C42.9581 204.124 43.0094 204.357 43.1121 204.562C43.2148 204.758 43.3501 204.936 43.5181 205.094C43.6954 205.253 43.8961 205.402 44.1201 205.542C44.3441 205.673 44.5774 205.799 44.8201 205.92C45.2401 205.594 45.5481 205.272 45.7441 204.954C45.9494 204.637 46.0521 204.287 46.0521 203.904C46.0521 203.428 45.9028 203.064 45.6041 202.812C45.3148 202.551 44.9648 202.42 44.5541 202.42C44.3021 202.42 44.0781 202.462 43.8821 202.546C43.6861 202.63 43.5181 202.738 43.3781 202.868C43.2381 202.999 43.1308 203.153 43.0561 203.33C42.9908 203.498 42.9581 203.676 42.9581 203.862Z" fill="#414143"/>
<g clip-path="url(#clip1_337_6025)">
<path d="M19.2339 210.053V203.763L24.6739 206.908L19.2339 210.053Z" stroke="#414143" stroke-width="0.85" stroke-miterlimit="10" stroke-linecap="round" stroke-linejoin="round"/>
<path d="M27.3956 199.088C28.3306 199.088 29.0956 199.853 29.0956 200.788V213.113C29.0956 214.048 28.3306 214.813 27.3956 214.813H15.0706C14.1356 214.813 13.3706 214.048 13.3706 213.113V200.788C13.3706 199.853 14.1356 199.088 15.0706 199.088H27.3956V199.088Z" stroke="#414143" stroke-width="0.85" stroke-miterlimit="10" stroke-linecap="round" stroke-linejoin="round"/>
</g>
<path d="M290.773 207.908C290.773 206.723 291.035 205.818 291.557 205.192C292.089 204.558 292.85 204.24 293.839 204.24C294.362 204.24 294.815 204.329 295.197 204.506C295.589 204.674 295.911 204.922 296.163 205.248C296.415 205.566 296.602 205.953 296.723 206.41C296.845 206.858 296.905 207.358 296.905 207.908C296.905 209.094 296.639 210.004 296.107 210.638C295.585 211.264 294.829 211.576 293.839 211.576C293.317 211.576 292.859 211.492 292.467 211.324C292.085 211.147 291.767 210.9 291.515 210.582C291.263 210.256 291.077 209.868 290.955 209.42C290.834 208.963 290.773 208.459 290.773 207.908ZM291.935 207.908C291.935 208.263 291.968 208.604 292.033 208.93C292.108 209.257 292.22 209.542 292.369 209.784C292.519 210.027 292.715 210.223 292.957 210.372C293.2 210.522 293.494 210.596 293.839 210.596C295.109 210.606 295.743 209.71 295.743 207.908C295.743 207.544 295.706 207.199 295.631 206.872C295.566 206.546 295.459 206.261 295.309 206.018C295.16 205.776 294.964 205.584 294.721 205.444C294.479 205.295 294.185 205.22 293.839 205.22C292.57 205.211 291.935 206.107 291.935 207.908Z" fill="#414143"/>
<path d="M287.821 207.264L287.863 206.396H287.821L287.247 207.292L284.097 211.408H283.453V204.408H284.573V208.678L284.531 209.504H284.587L285.133 208.636L288.283 204.408H288.941V211.408H287.821V207.264Z" fill="#414143"/>
<path d="M280.108 205.388H278.078C278.05 205.78 278.022 206.205 277.994 206.662C277.966 207.11 277.924 207.563 277.868 208.02C277.812 208.468 277.737 208.902 277.644 209.322C277.551 209.733 277.429 210.097 277.28 210.414C277.14 210.732 276.963 210.988 276.748 211.184C276.543 211.371 276.295 211.464 276.006 211.464C275.829 211.464 275.675 211.455 275.544 211.436C275.413 211.418 275.297 211.385 275.194 211.338L275.362 210.4C275.474 210.438 275.595 210.456 275.726 210.456C275.913 210.456 276.081 210.377 276.23 210.218C276.379 210.06 276.51 209.761 276.622 209.322C276.734 208.874 276.827 208.258 276.902 207.474C276.977 206.69 277.028 205.668 277.056 204.408H281.228V211.408H280.108V205.388Z" fill="#414143"/>
<path d="M268.456 207.908C268.456 206.723 268.717 205.818 269.24 205.192C269.772 204.558 270.533 204.24 271.522 204.24C272.045 204.24 272.497 204.329 272.88 204.506C273.272 204.674 273.594 204.922 273.846 205.248C274.098 205.566 274.285 205.953 274.406 206.41C274.527 206.858 274.588 207.358 274.588 207.908C274.588 209.094 274.322 210.004 273.79 210.638C273.267 211.264 272.511 211.576 271.522 211.576C270.999 211.576 270.542 211.492 270.15 211.324C269.767 211.147 269.45 210.9 269.198 210.582C268.946 210.256 268.759 209.868 268.638 209.42C268.517 208.963 268.456 208.459 268.456 207.908ZM269.618 207.908C269.618 208.263 269.651 208.604 269.716 208.93C269.791 209.257 269.903 209.542 270.052 209.784C270.201 210.027 270.397 210.223 270.64 210.372C270.883 210.522 271.177 210.596 271.522 210.596C272.791 210.606 273.426 209.71 273.426 207.908C273.426 207.544 273.389 207.199 273.314 206.872C273.249 206.546 273.141 206.261 272.992 206.018C272.843 205.776 272.647 205.584 272.404 205.444C272.161 205.295 271.867 205.22 271.522 205.22C270.253 205.211 269.618 206.107 269.618 207.908Z" fill="#414143"/>
<path d="M262.413 211.464C262.254 211.52 262.086 211.553 261.909 211.562C261.741 211.572 261.587 211.576 261.447 211.576C260.597 211.576 259.944 211.278 259.487 210.68C259.029 210.083 258.801 209.159 258.801 207.908C258.801 206.714 259.053 205.813 259.557 205.206C260.061 204.6 260.789 204.296 261.741 204.296C262.002 204.296 262.226 204.315 262.413 204.352V201.608H263.477V204.366C263.645 204.338 263.794 204.32 263.925 204.31C264.055 204.301 264.181 204.296 264.303 204.296C265.227 204.296 265.922 204.567 266.389 205.108C266.855 205.64 267.089 206.527 267.089 207.768C267.089 208.356 267.023 208.888 266.893 209.364C266.771 209.831 266.589 210.228 266.347 210.554C266.104 210.881 265.805 211.133 265.451 211.31C265.105 211.488 264.704 211.576 264.247 211.576C264.163 211.576 264.037 211.567 263.869 211.548C263.71 211.539 263.579 211.516 263.477 211.478V214.208H262.413V211.464ZM264.093 205.22C263.981 205.22 263.878 205.225 263.785 205.234C263.701 205.234 263.593 205.253 263.463 205.29V210.61C263.556 210.629 263.659 210.643 263.771 210.652C263.892 210.652 264.023 210.652 264.163 210.652C264.76 210.652 265.208 210.405 265.507 209.91C265.815 209.416 265.969 208.702 265.969 207.768C265.969 206.975 265.829 206.354 265.549 205.906C265.278 205.449 264.793 205.22 264.093 205.22ZM261.727 210.652C261.839 210.652 261.951 210.648 262.063 210.638C262.175 210.629 262.296 210.61 262.427 210.582V205.276C262.315 205.258 262.207 205.244 262.105 205.234C262.011 205.225 261.895 205.22 261.755 205.22C261.176 205.22 260.723 205.44 260.397 205.878C260.079 206.308 259.921 206.984 259.921 207.908C259.921 208.3 259.953 208.664 260.019 209C260.093 209.336 260.205 209.63 260.355 209.882C260.504 210.125 260.691 210.316 260.915 210.456C261.148 210.587 261.419 210.652 261.727 210.652Z" fill="#414143"/>
<path d="M258.299 205.388H256.101V211.408H254.981V205.388H252.783V204.408H258.299V205.388Z" fill="#414143"/>
<path d="M246.408 204.408H247.178L247.388 205.248H247.444C247.658 204.922 247.934 204.674 248.27 204.506C248.615 204.329 249.007 204.24 249.446 204.24C250.379 204.24 251.074 204.516 251.532 205.066C251.989 205.617 252.218 206.518 252.218 207.768C252.218 208.356 252.138 208.888 251.98 209.364C251.83 209.831 251.616 210.228 251.336 210.554C251.056 210.881 250.715 211.133 250.314 211.31C249.922 211.488 249.483 211.576 248.998 211.576C248.652 211.576 248.377 211.553 248.172 211.506C247.976 211.469 247.761 211.399 247.528 211.296V214.208H246.408V204.408ZM249.236 205.22C248.76 205.22 248.382 205.346 248.102 205.598C247.831 205.841 247.64 206.214 247.528 206.718V210.19C247.696 210.321 247.887 210.424 248.102 210.498C248.316 210.564 248.601 210.596 248.956 210.596C249.6 210.596 250.108 210.358 250.482 209.882C250.864 209.397 251.056 208.688 251.056 207.754C251.056 207.372 251.023 207.026 250.958 206.718C250.892 206.401 250.785 206.135 250.636 205.92C250.496 205.696 250.309 205.524 250.076 205.402C249.852 205.281 249.572 205.22 249.236 205.22Z" fill="#414143"/>
<path d="M238.44 207.908C238.44 206.723 238.701 205.818 239.224 205.192C239.756 204.558 240.517 204.24 241.506 204.24C242.029 204.24 242.481 204.329 242.864 204.506C243.256 204.674 243.578 204.922 243.83 205.248C244.082 205.566 244.269 205.953 244.39 206.41C244.511 206.858 244.572 207.358 244.572 207.908C244.572 209.094 244.306 210.004 243.774 210.638C243.251 211.264 242.495 211.576 241.506 211.576C240.983 211.576 240.526 211.492 240.134 211.324C239.751 211.147 239.434 210.9 239.182 210.582C238.93 210.256 238.743 209.868 238.622 209.42C238.501 208.963 238.44 208.459 238.44 207.908ZM239.602 207.908C239.602 208.263 239.635 208.604 239.7 208.93C239.775 209.257 239.887 209.542 240.036 209.784C240.185 210.027 240.381 210.223 240.624 210.372C240.867 210.522 241.161 210.596 241.506 210.596C242.775 210.606 243.41 209.71 243.41 207.908C243.41 207.544 243.373 207.199 243.298 206.872C243.233 206.546 243.125 206.261 242.976 206.018C242.827 205.776 242.631 205.584 242.388 205.444C242.145 205.295 241.851 205.22 241.506 205.22C240.237 205.211 239.602 206.107 239.602 207.908Z" fill="#414143"/>
<path d="M235.484 205.388H232.39V211.408H231.27V204.408H236.604V211.408H235.484V205.388Z" fill="#414143"/>
<path d="M224.239 208.51L223.161 208.678L221.313 211.408H219.955L221.635 209.014L222.195 208.496C221.709 208.422 221.294 208.226 220.949 207.908C220.613 207.591 220.445 207.162 220.445 206.62C220.445 206.2 220.515 205.841 220.655 205.542C220.804 205.244 221.014 204.996 221.285 204.8C221.555 204.604 221.877 204.464 222.251 204.38C222.624 204.287 223.044 204.24 223.511 204.24C223.856 204.24 224.178 204.264 224.477 204.31C224.775 204.357 225.069 204.408 225.359 204.464V211.408H224.239V208.51ZM224.239 205.36C224.117 205.314 223.982 205.281 223.833 205.262C223.683 205.234 223.553 205.22 223.441 205.22C222.843 205.22 222.386 205.328 222.069 205.542C221.761 205.757 221.607 206.098 221.607 206.564C221.607 206.984 221.77 207.311 222.097 207.544C222.433 207.768 222.871 207.88 223.413 207.88C223.422 207.88 223.436 207.88 223.455 207.88C223.473 207.88 223.511 207.88 223.567 207.88C223.623 207.88 223.702 207.88 223.805 207.88C223.907 207.871 224.052 207.862 224.239 207.852V205.36Z" fill="#414143"/>
<path d="M217.408 205.388H215.378C215.35 205.78 215.322 206.205 215.294 206.662C215.266 207.11 215.224 207.563 215.168 208.02C215.112 208.468 215.037 208.902 214.944 209.322C214.85 209.733 214.729 210.097 214.58 210.414C214.44 210.732 214.262 210.988 214.048 211.184C213.842 211.371 213.595 211.464 213.306 211.464C213.128 211.464 212.974 211.455 212.844 211.436C212.713 211.418 212.596 211.385 212.494 211.338L212.662 210.4C212.774 210.438 212.895 210.456 213.026 210.456C213.212 210.456 213.38 210.377 213.53 210.218C213.679 210.06 213.81 209.761 213.922 209.322C214.034 208.874 214.127 208.258 214.202 207.474C214.276 206.69 214.328 205.668 214.356 204.408H218.528V211.408H217.408V205.388Z" fill="#414143"/>
<path d="M211.762 213.186H211.006L210.796 211.408H205.532L205.322 213.186H204.566V210.428H205.392C205.467 210.326 205.565 210.144 205.686 209.882C205.807 209.612 205.924 209.238 206.036 208.762C206.157 208.277 206.26 207.68 206.344 206.97C206.437 206.252 206.493 205.398 206.512 204.408H210.74V210.428H211.762V213.186ZM209.62 210.428V205.388H207.52C207.501 205.78 207.469 206.21 207.422 206.676C207.375 207.134 207.31 207.596 207.226 208.062C207.151 208.52 207.053 208.954 206.932 209.364C206.811 209.775 206.671 210.13 206.512 210.428H209.62Z" fill="#414143"/>
<path d="M201.027 205.388H198.829V211.408H197.709V205.388H195.511V204.408H201.027V205.388Z" fill="#414143"/>
<path d="M188.812 207.908C188.812 206.723 189.073 205.818 189.596 205.192C190.128 204.558 190.888 204.24 191.878 204.24C192.4 204.24 192.853 204.329 193.236 204.506C193.628 204.674 193.95 204.922 194.202 205.248C194.454 205.566 194.64 205.953 194.762 206.41C194.883 206.858 194.944 207.358 194.944 207.908C194.944 209.094 194.678 210.004 194.146 210.638C193.623 211.264 192.867 211.576 191.878 211.576C191.355 211.576 190.898 211.492 190.506 211.324C190.123 211.147 189.806 210.9 189.554 210.582C189.302 210.256 189.115 209.868 188.994 209.42C188.872 208.963 188.812 208.459 188.812 207.908ZM189.974 207.908C189.974 208.263 190.006 208.604 190.072 208.93C190.146 209.257 190.258 209.542 190.408 209.784C190.557 210.027 190.753 210.223 190.996 210.372C191.238 210.522 191.532 210.596 191.878 210.596C193.147 210.606 193.782 209.71 193.782 207.908C193.782 207.544 193.744 207.199 193.67 206.872C193.604 206.546 193.497 206.261 193.348 206.018C193.198 205.776 193.002 205.584 192.76 205.444C192.517 205.295 192.223 205.22 191.878 205.22C190.608 205.211 189.974 206.107 189.974 207.908Z" fill="#414143"/>
<path d="M182.272 205.654C182.58 205.206 182.921 204.893 183.294 204.716C183.667 204.529 184.134 204.436 184.694 204.436C185.553 204.436 186.211 204.716 186.668 205.276C187.135 205.836 187.368 206.662 187.368 207.754C187.368 209.014 187.097 209.966 186.556 210.61C186.024 211.254 185.277 211.576 184.316 211.576C183.289 211.576 182.519 211.221 182.006 210.512C181.493 209.802 181.236 208.687 181.236 207.166C181.236 206.363 181.273 205.677 181.348 205.108C181.432 204.538 181.549 204.058 181.698 203.666C181.857 203.274 182.043 202.961 182.258 202.728C182.482 202.494 182.729 202.312 183 202.182C183.28 202.042 183.583 201.944 183.91 201.888C184.237 201.832 184.587 201.785 184.96 201.748C185.445 201.701 185.823 201.65 186.094 201.594C186.374 201.528 186.598 201.416 186.766 201.258L186.892 202.266C186.799 202.35 186.696 202.42 186.584 202.476C186.472 202.532 186.337 202.578 186.178 202.616C186.019 202.653 185.828 202.686 185.604 202.714C185.389 202.742 185.137 202.765 184.848 202.784C184.447 202.812 184.092 202.863 183.784 202.938C183.485 203.003 183.224 203.138 183 203.344C182.785 203.54 182.613 203.824 182.482 204.198C182.361 204.562 182.277 205.047 182.23 205.654H182.272ZM182.398 207.922C182.398 208.276 182.435 208.617 182.51 208.944C182.585 209.27 182.697 209.56 182.846 209.812C183.005 210.054 183.205 210.246 183.448 210.386C183.691 210.526 183.975 210.596 184.302 210.596C184.946 210.596 185.422 210.367 185.73 209.91C186.047 209.443 186.206 208.757 186.206 207.852C186.206 207.497 186.173 207.17 186.108 206.872C186.043 206.573 185.94 206.316 185.8 206.102C185.66 205.878 185.483 205.71 185.268 205.598C185.053 205.476 184.797 205.416 184.498 205.416C183.77 205.406 183.238 205.621 182.902 206.06C182.566 206.489 182.398 207.11 182.398 207.922Z" fill="#414143"/>
<path d="M174.501 204.926C174.855 204.711 175.266 204.553 175.733 204.45C176.209 204.347 176.703 204.296 177.217 204.296C177.702 204.296 178.089 204.361 178.379 204.492C178.677 204.623 178.901 204.795 179.051 205.01C179.209 205.215 179.312 205.444 179.359 205.696C179.415 205.948 179.443 206.2 179.443 206.452C179.443 207.012 179.429 207.558 179.401 208.09C179.373 208.622 179.359 209.126 179.359 209.602C179.359 209.947 179.373 210.274 179.401 210.582C179.429 210.89 179.48 211.175 179.555 211.436H178.729L178.435 210.456H178.365C178.281 210.587 178.173 210.717 178.043 210.848C177.921 210.969 177.772 211.081 177.595 211.184C177.417 211.277 177.212 211.357 176.979 211.422C176.745 211.487 176.479 211.52 176.181 211.52C175.882 211.52 175.602 211.473 175.341 211.38C175.089 211.287 174.869 211.156 174.683 210.988C174.496 210.811 174.347 210.601 174.235 210.358C174.132 210.115 174.081 209.84 174.081 209.532C174.081 209.121 174.165 208.781 174.333 208.51C174.501 208.23 174.734 208.011 175.033 207.852C175.341 207.684 175.705 207.567 176.125 207.502C176.554 207.427 177.025 207.39 177.539 207.39C177.669 207.39 177.795 207.39 177.917 207.39C178.047 207.39 178.178 207.399 178.309 207.418C178.337 207.138 178.351 206.886 178.351 206.662C178.351 206.149 178.248 205.789 178.043 205.584C177.837 205.379 177.464 205.276 176.923 205.276C176.764 205.276 176.591 205.29 176.405 205.318C176.227 205.337 176.041 205.369 175.845 205.416C175.658 205.453 175.476 205.505 175.299 205.57C175.131 205.626 174.981 205.691 174.851 205.766L174.501 204.926ZM176.489 210.54C176.75 210.54 176.983 210.507 177.189 210.442C177.394 210.367 177.571 210.279 177.721 210.176C177.87 210.064 177.991 209.943 178.085 209.812C178.187 209.681 178.262 209.555 178.309 209.434V208.272C178.178 208.263 178.043 208.258 177.903 208.258C177.772 208.249 177.641 208.244 177.511 208.244C177.221 208.244 176.937 208.263 176.657 208.3C176.386 208.328 176.143 208.389 175.929 208.482C175.723 208.566 175.555 208.687 175.425 208.846C175.303 208.995 175.243 209.187 175.243 209.42C175.243 209.747 175.359 210.017 175.593 210.232C175.826 210.437 176.125 210.54 176.489 210.54Z" fill="#414143"/>
<path d="M166.968 204.408H167.738L167.948 205.248H168.004C168.219 204.922 168.494 204.674 168.83 204.506C169.176 204.329 169.568 204.24 170.006 204.24C170.94 204.24 171.635 204.516 172.092 205.066C172.55 205.617 172.778 206.518 172.778 207.768C172.778 208.356 172.699 208.888 172.54 209.364C172.391 209.831 172.176 210.228 171.896 210.554C171.616 210.881 171.276 211.133 170.874 211.31C170.482 211.488 170.044 211.576 169.558 211.576C169.213 211.576 168.938 211.553 168.732 211.506C168.536 211.469 168.322 211.399 168.088 211.296V214.208H166.968V204.408ZM169.796 205.22C169.32 205.22 168.942 205.346 168.662 205.598C168.392 205.841 168.2 206.214 168.088 206.718V210.19C168.256 210.321 168.448 210.424 168.662 210.498C168.877 210.564 169.162 210.596 169.516 210.596C170.16 210.596 170.669 210.358 171.042 209.882C171.425 209.397 171.616 208.688 171.616 207.754C171.616 207.372 171.584 207.026 171.518 206.718C171.453 206.401 171.346 206.135 171.196 205.92C171.056 205.696 170.87 205.524 170.636 205.402C170.412 205.281 170.132 205.22 169.796 205.22Z" fill="#414143"/>
<path d="M154.991 206.508C154.991 204.828 155.261 203.564 155.803 202.714C156.353 201.865 157.151 201.44 158.197 201.44C159.326 201.44 160.143 201.86 160.647 202.7C161.16 203.531 161.417 204.8 161.417 206.508C161.417 208.188 161.141 209.453 160.591 210.302C160.049 211.152 159.251 211.576 158.197 211.576C157.086 211.576 156.274 211.133 155.761 210.246C155.247 209.36 154.991 208.114 154.991 206.508ZM156.153 206.508C156.153 207.115 156.19 207.67 156.265 208.174C156.349 208.669 156.475 209.098 156.643 209.462C156.811 209.817 157.021 210.097 157.273 210.302C157.534 210.498 157.842 210.596 158.197 210.596C158.906 210.596 159.424 210.27 159.751 209.616C160.087 208.954 160.255 207.918 160.255 206.508C160.255 205.911 160.217 205.36 160.143 204.856C160.077 204.352 159.961 203.918 159.793 203.554C159.634 203.19 159.424 202.91 159.163 202.714C158.901 202.518 158.579 202.42 158.197 202.42C157.497 202.42 156.979 202.752 156.643 203.414C156.316 204.077 156.153 205.108 156.153 206.508Z" fill="#414143"/>
<path d="M148.202 210.372H150.162V203.596L150.302 202.77L149.742 203.428L148.202 204.534L147.67 203.82L150.75 201.44H151.254V210.372H153.172V211.408H148.202V210.372Z" fill="#414143"/>
<g clip-path="url(#clip2_337_6025)">
<path d="M119.33 207.448V200.488C119.33 199.688 119.97 198.968 120.85 198.968H132.69C133.49 198.968 134.21 199.608 134.21 200.488V212.248C134.21 213.048 133.57 213.768 132.77 213.768H120.93C120.05 213.768 119.33 213.048 119.33 212.168V207.448V207.448Z" stroke="#414143" stroke-width="0.8" stroke-miterlimit="10" stroke-linecap="round" stroke-linejoin="round"/>
<path d="M119.33 207.447L122.61 204.247L127.89 210.167" stroke="#414143" stroke-width="0.8" stroke-miterlimit="10" stroke-linecap="round" stroke-linejoin="round"/>
<path d="M133.809 210.007L131.089 206.567L127.009 211.287" stroke="#414143" stroke-width="0.8" stroke-miterlimit="10" stroke-linecap="round" stroke-linejoin="round"/>
<path d="M129.17 204.248C128.13 204.248 127.33 203.448 127.33 202.408C127.33 202.168 127.41 201.928 127.49 201.768C126.61 201.848 125.89 202.648 125.89 203.528C125.89 204.488 126.69 205.368 127.73 205.368C128.53 205.368 129.17 204.888 129.41 204.248C129.25 204.248 129.25 204.248 129.17 204.248Z" stroke="#414143" stroke-width="0.8" stroke-miterlimit="10" stroke-linecap="round" stroke-linejoin="round"/>
</g>
<path d="M83.4623 241.428C83.8076 241.484 84.139 241.512 84.4563 241.512C85.0443 241.512 85.455 241.4 85.6883 241.176C85.9216 240.943 86.0383 240.616 86.0383 240.196C86.0383 239.823 85.9216 239.515 85.6883 239.272C85.4643 239.03 85.0676 238.908 84.4983 238.908C84.3396 238.908 84.167 238.913 83.9803 238.922C83.7936 238.932 83.621 238.96 83.4623 239.006V241.428ZM83.4623 238.082C83.6863 238.045 83.901 238.022 84.1063 238.012C84.3116 237.994 84.5076 237.984 84.6943 237.984C85.1703 237.984 85.567 238.04 85.8843 238.152C86.211 238.255 86.4723 238.4 86.6683 238.586C86.8643 238.773 86.9996 238.997 87.0743 239.258C87.1583 239.51 87.2003 239.781 87.2003 240.07C87.2003 240.92 86.9623 241.536 86.4863 241.918C86.0196 242.301 85.259 242.492 84.2043 242.492C83.607 242.492 82.9863 242.464 82.3423 242.408V235.408H83.4623V238.082ZM88.3063 235.408H89.4263V242.408H88.3063V235.408Z" fill="#414143"/>
<path d="M79.031 238.25L79.115 236.92H79.045L78.541 237.998L76.847 240.742H76.455L74.691 237.998L74.229 236.92H74.173L74.285 238.236V242.408H73.249V235.408H74.355L76.315 238.544L76.721 239.356H76.749L77.169 238.516L79.003 235.408H80.123V242.408H79.031V238.25Z" fill="#414143"/>
<path d="M71.1792 241.848C70.8992 242.072 70.5446 242.25 70.1152 242.38C69.6952 242.511 69.2472 242.576 68.7712 242.576C68.2392 242.576 67.7772 242.492 67.3852 242.324C66.9932 242.147 66.6712 241.9 66.4192 241.582C66.1672 241.256 65.9806 240.868 65.8592 240.42C65.7379 239.972 65.6772 239.468 65.6772 238.908C65.6772 237.714 65.9432 236.804 66.4752 236.178C67.0072 235.553 67.7679 235.24 68.7572 235.24C69.0746 235.24 69.3919 235.278 69.7092 235.352C70.0266 235.418 70.3112 235.548 70.5632 235.744C70.8152 235.94 71.0206 236.22 71.1792 236.584C71.3379 236.939 71.4172 237.41 71.4172 237.998C71.4172 238.306 71.3892 238.647 71.3332 239.02H66.8392C66.8392 239.431 66.8812 239.795 66.9652 240.112C67.0492 240.43 67.1799 240.7 67.3572 240.924C67.5346 241.139 67.7632 241.307 68.0432 241.428C68.3326 241.54 68.6826 241.596 69.0932 241.596C69.4106 241.596 69.7279 241.54 70.0452 241.428C70.3626 241.316 70.6006 241.186 70.7592 241.036L71.1792 241.848ZM68.7712 236.22C68.2206 236.22 67.7772 236.365 67.4412 236.654C67.1146 236.944 66.9186 237.438 66.8532 238.138H70.3252C70.3252 237.429 70.1899 236.934 69.9192 236.654C69.6486 236.365 69.2659 236.22 68.7712 236.22Z" fill="#414143"/>
<path d="M65.1058 236.388H62.9078V242.408H61.7878V236.388H59.5898V235.408H65.1058V236.388Z" fill="#414143"/>
<path d="M55.7249 239.398H54.0729V242.408H52.9809V239.398H48.6689V238.936L53.3169 232.454H54.0729V238.418H55.7249V239.398ZM52.9809 235.366L53.1209 234.218H53.0789L52.5889 235.17L50.6149 237.844L49.9429 238.53L50.9229 238.418H52.9809V235.366Z" fill="#414143"/>
<path d="M43.6721 241.596C44.3161 241.596 44.8481 241.41 45.2681 241.036C45.6881 240.663 45.8981 240.122 45.8981 239.412C45.8981 238.731 45.6881 238.222 45.2681 237.886C44.8574 237.55 44.2881 237.382 43.5601 237.382L42.3841 237.452V232.608H46.7521V233.644H43.4341V236.43L44.0361 236.402C44.9601 236.412 45.6881 236.668 46.2201 237.172C46.7521 237.676 47.0181 238.4 47.0181 239.342C47.0181 239.865 46.9294 240.332 46.7521 240.742C46.5747 241.144 46.3321 241.48 46.0241 241.75C45.7254 242.021 45.3707 242.226 44.9601 242.366C44.5494 242.506 44.1107 242.576 43.6441 242.576C43.2241 242.576 42.8694 242.553 42.5801 242.506C42.2907 242.46 42.0201 242.39 41.7681 242.296L42.0621 241.344C42.2767 241.428 42.5054 241.494 42.7481 241.54C43.0001 241.578 43.3081 241.596 43.6721 241.596Z" fill="#414143"/>
<g clip-path="url(#clip3_337_6025)">
<path d="M14.9296 244.848C14.0496 244.848 13.3296 244.128 13.3296 243.248V231.488C13.3296 230.688 13.9696 229.968 14.7696 229.968H26.5296C27.3296 229.968 27.9696 230.608 27.9696 231.488V243.168C27.9696 244.048 27.2496 244.768 26.3696 244.768H14.9296V244.848Z" stroke="#414143" stroke-width="0.8" stroke-miterlimit="10" stroke-linecap="round" stroke-linejoin="round"/>
<path d="M16.4497 233.008H19.3297" stroke="#414143" stroke-width="0.8" stroke-miterlimit="10" stroke-linecap="round" stroke-linejoin="round"/>
<path d="M16.4487 235.247H19.3287" stroke="#414143" stroke-width="0.8" stroke-miterlimit="10" stroke-linecap="round" stroke-linejoin="round"/>
<path d="M16.4497 237.407H19.3297" stroke="#414143" stroke-width="0.8" stroke-miterlimit="10" stroke-linecap="round" stroke-linejoin="round"/>
<path d="M16.4497 239.567H24.9297" stroke="#414143" stroke-width="0.8" stroke-miterlimit="10" stroke-linecap="round" stroke-linejoin="round"/>
<path d="M16.4497 241.808H24.9297" stroke="#414143" stroke-width="0.8" stroke-miterlimit="10" stroke-linecap="round" stroke-linejoin="round"/>
<path d="M24.9299 233.008H21.6499V237.248H24.9299V233.008Z" stroke="#414143" stroke-width="0.8" stroke-miterlimit="10" stroke-linecap="round" stroke-linejoin="round"/>
</g>
<path d="M195.121 235.926C195.475 235.711 195.886 235.553 196.353 235.45C196.829 235.347 197.323 235.296 197.837 235.296C198.322 235.296 198.709 235.361 198.999 235.492C199.297 235.623 199.521 235.795 199.671 236.01C199.829 236.215 199.932 236.444 199.979 236.696C200.035 236.948 200.063 237.2 200.063 237.452C200.063 238.012 200.049 238.558 200.021 239.09C199.993 239.622 199.979 240.126 199.979 240.602C199.979 240.947 199.993 241.274 200.021 241.582C200.049 241.89 200.1 242.175 200.175 242.436H199.349L199.055 241.456H198.985C198.901 241.587 198.793 241.717 198.663 241.848C198.541 241.969 198.392 242.081 198.215 242.184C198.037 242.277 197.832 242.357 197.599 242.422C197.365 242.487 197.099 242.52 196.801 242.52C196.502 242.52 196.222 242.473 195.961 242.38C195.709 242.287 195.489 242.156 195.303 241.988C195.116 241.811 194.967 241.601 194.855 241.358C194.752 241.115 194.701 240.84 194.701 240.532C194.701 240.121 194.785 239.781 194.953 239.51C195.121 239.23 195.354 239.011 195.653 238.852C195.961 238.684 196.325 238.567 196.745 238.502C197.174 238.427 197.645 238.39 198.159 238.39C198.289 238.39 198.415 238.39 198.537 238.39C198.667 238.39 198.798 238.399 198.929 238.418C198.957 238.138 198.971 237.886 198.971 237.662C198.971 237.149 198.868 236.789 198.663 236.584C198.457 236.379 198.084 236.276 197.543 236.276C197.384 236.276 197.211 236.29 197.025 236.318C196.847 236.337 196.661 236.369 196.465 236.416C196.278 236.453 196.096 236.505 195.919 236.57C195.751 236.626 195.601 236.691 195.471 236.766L195.121 235.926ZM197.109 241.54C197.37 241.54 197.603 241.507 197.809 241.442C198.014 241.367 198.191 241.279 198.341 241.176C198.49 241.064 198.611 240.943 198.705 240.812C198.807 240.681 198.882 240.555 198.929 240.434V239.272C198.798 239.263 198.663 239.258 198.523 239.258C198.392 239.249 198.261 239.244 198.131 239.244C197.841 239.244 197.557 239.263 197.277 239.3C197.006 239.328 196.763 239.389 196.549 239.482C196.343 239.566 196.175 239.687 196.045 239.846C195.923 239.995 195.863 240.187 195.863 240.42C195.863 240.747 195.979 241.017 196.213 241.232C196.446 241.437 196.745 241.54 197.109 241.54Z" fill="#414143"/>
<path d="M193.779 244.186H193.023L192.813 242.408H187.493V235.408H188.613V241.428H191.651V235.408H192.771V241.428H193.779V244.186Z" fill="#414143"/>
<path d="M184.264 239.51L183.186 239.678L181.338 242.408H179.98L181.66 240.014L182.22 239.496C181.735 239.422 181.319 239.226 180.974 238.908C180.638 238.591 180.47 238.162 180.47 237.62C180.47 237.2 180.54 236.841 180.68 236.542C180.829 236.244 181.039 235.996 181.31 235.8C181.581 235.604 181.903 235.464 182.276 235.38C182.649 235.287 183.069 235.24 183.536 235.24C183.881 235.24 184.203 235.264 184.502 235.31C184.801 235.357 185.095 235.408 185.384 235.464V242.408H184.264V239.51ZM184.264 236.36C184.143 236.314 184.007 236.281 183.858 236.262C183.709 236.234 183.578 236.22 183.466 236.22C182.869 236.22 182.411 236.328 182.094 236.542C181.786 236.757 181.632 237.098 181.632 237.564C181.632 237.984 181.795 238.311 182.122 238.544C182.458 238.768 182.897 238.88 183.438 238.88C183.447 238.88 183.461 238.88 183.48 238.88C183.499 238.88 183.536 238.88 183.592 238.88C183.648 238.88 183.727 238.88 183.83 238.88C183.933 238.871 184.077 238.862 184.264 238.852V236.36Z" fill="#414143"/>
<path d="M179.166 241.946C178.886 242.152 178.554 242.306 178.172 242.408C177.789 242.52 177.388 242.576 176.968 242.576C176.426 242.576 175.969 242.492 175.596 242.324C175.222 242.147 174.914 241.9 174.672 241.582C174.438 241.256 174.266 240.868 174.154 240.42C174.051 239.963 174 239.459 174 238.908C174 237.723 174.261 236.818 174.784 236.192C175.306 235.558 176.058 235.24 177.038 235.24C177.486 235.24 177.864 235.278 178.172 235.352C178.489 235.418 178.774 235.516 179.026 235.646L178.704 236.612C178.489 236.491 178.251 236.398 177.99 236.332C177.728 236.258 177.448 236.22 177.15 236.22C175.824 236.22 175.162 237.116 175.162 238.908C175.162 239.263 175.194 239.604 175.26 239.93C175.334 240.248 175.451 240.532 175.61 240.784C175.778 241.027 175.992 241.223 176.254 241.372C176.524 241.522 176.856 241.596 177.248 241.596C177.584 241.596 177.882 241.545 178.144 241.442C178.414 241.34 178.634 241.223 178.802 241.092L179.166 241.946Z" fill="#414143"/>
<path d="M172.473 241.848C172.193 242.072 171.838 242.25 171.409 242.38C170.989 242.511 170.541 242.576 170.065 242.576C169.533 242.576 169.071 242.492 168.679 242.324C168.287 242.147 167.965 241.9 167.713 241.582C167.461 241.256 167.274 240.868 167.153 240.42C167.031 239.972 166.971 239.468 166.971 238.908C166.971 237.714 167.237 236.804 167.769 236.178C168.301 235.553 169.061 235.24 170.051 235.24C170.368 235.24 170.685 235.278 171.003 235.352C171.32 235.418 171.605 235.548 171.857 235.744C172.109 235.94 172.314 236.22 172.473 236.584C172.631 236.939 172.711 237.41 172.711 237.998C172.711 238.306 172.683 238.647 172.627 239.02H168.133C168.133 239.431 168.175 239.795 168.259 240.112C168.343 240.43 168.473 240.7 168.651 240.924C168.828 241.139 169.057 241.307 169.337 241.428C169.626 241.54 169.976 241.596 170.387 241.596C170.704 241.596 171.021 241.54 171.339 241.428C171.656 241.316 171.894 241.186 172.053 241.036L172.473 241.848ZM170.065 236.22C169.514 236.22 169.071 236.365 168.735 236.654C168.408 236.944 168.212 237.438 168.147 238.138H171.619C171.619 237.429 171.483 236.934 171.213 236.654C170.942 236.365 170.559 236.22 170.065 236.22Z" fill="#414143"/>
<path d="M164.051 238.25L164.135 236.92H164.065L163.561 237.998L161.867 240.742H161.475L159.711 237.998L159.249 236.92H159.193L159.305 238.236V242.408H158.269V235.408H159.375L161.335 238.544L161.741 239.356H161.769L162.189 238.516L164.023 235.408H165.143V242.408H164.051V238.25Z" fill="#414143"/>
<path d="M153.026 239.398H151.374V242.408H150.282V239.398H145.97V238.936L150.618 232.454H151.374V238.418H153.026V239.398ZM150.282 235.366L150.422 234.218H150.38L149.89 235.17L147.916 237.844L147.244 238.53L148.224 238.418H150.282V235.366Z" fill="#414143"/>
<path fill-rule="evenodd" clip-rule="evenodd" d="M123.772 235.451C123.69 235.369 123.557 235.369 123.475 235.451C123.394 235.533 123.394 235.666 123.475 235.747L123.772 236.044L124.068 236.34C124.15 236.422 124.283 236.422 124.365 236.34C124.446 236.258 124.446 236.126 124.365 236.044L124.068 235.747L123.772 235.451ZM122.157 238.952C122.157 238.836 122.251 238.743 122.366 238.743H122.785H123.205C123.32 238.743 123.414 238.836 123.414 238.952C123.414 239.068 123.32 239.162 123.205 239.162H122.785H122.366C122.251 239.162 122.157 239.068 122.157 238.952ZM127.815 242.934C127.931 242.934 128.024 243.028 128.024 243.143V243.562V243.982C128.024 244.097 127.931 244.191 127.815 244.191C127.699 244.191 127.605 244.097 127.605 243.982V243.562V243.143C127.605 243.028 127.699 242.934 127.815 242.934ZM125.029 241.737C124.948 241.656 124.815 241.656 124.733 241.737L124.437 242.034L124.14 242.33C124.058 242.412 124.058 242.545 124.14 242.626C124.222 242.708 124.355 242.708 124.437 242.626L124.733 242.33L125.029 242.034C125.111 241.952 125.111 241.819 125.029 241.737ZM130.897 241.737C130.815 241.656 130.682 241.656 130.6 241.737C130.518 241.819 130.518 241.952 130.6 242.034L130.897 242.33L131.193 242.626C131.275 242.708 131.407 242.708 131.489 242.626C131.571 242.545 131.571 242.412 131.489 242.33L131.193 242.034L130.897 241.737Z" fill="#414143"/>
<path fill-rule="evenodd" clip-rule="evenodd" d="M134.102 238.533C134.102 242.005 131.287 244.82 127.815 244.82C124.343 244.82 121.528 242.005 121.528 238.533C121.528 235.061 124.343 232.246 127.815 232.246C131.287 232.246 134.102 235.061 134.102 238.533ZM134.94 238.533C134.94 242.468 131.75 245.658 127.815 245.658C123.88 245.658 120.69 242.468 120.69 238.533C120.69 234.598 123.88 231.408 127.815 231.408C131.75 231.408 134.94 234.598 134.94 238.533ZM128.234 234.342C128.234 234.111 128.046 233.923 127.815 233.923C127.583 233.923 127.396 234.111 127.396 234.342V238.952V239.371H127.815H131.587C131.818 239.371 132.006 239.184 132.006 238.952C132.006 238.721 131.818 238.533 131.587 238.533H128.234V234.342Z" fill="#414143"/>
</g>
<defs>
<clipPath id="clip0_337_6025">
<rect width="330" height="328" fill="white"/>
</clipPath>
<clipPath id="clip1_337_6025">
<rect width="17" height="17" fill="white" transform="translate(12.6899 198.408)"/>
</clipPath>
<clipPath id="clip2_337_6025">
<rect width="16" height="16" fill="white" transform="translate(118.69 198.408)"/>
</clipPath>
<clipPath id="clip3_337_6025">
<rect width="16" height="16" fill="white" transform="translate(12.6899 229.408)"/>
</clipPath>
</defs>
</svg>
