<svg width="146" height="100" viewBox="0 0 146 100" fill="none" xmlns="http://www.w3.org/2000/svg">
<path d="M95.3365 1.26239C91.9576 1.26239 83.0978 17.8734 83.9669 42.0848L117.349 44.3907C117.349 44.3907 106.617 1.26239 95.3365 1.26239Z" fill="white" stroke="#414042" stroke-width="0.883526" stroke-miterlimit="10" stroke-linecap="round" stroke-linejoin="round"/>
<path d="M43.233 1.26241C39.9339 1.99851 30.9942 17.8734 31.8634 42.0849L61.396 28.1433C61.396 28.1433 49.2105 -0.0678917 43.233 1.26241Z" fill="white" stroke="#414042" stroke-width="0.883526" stroke-miterlimit="10" stroke-linecap="round" stroke-linejoin="round"/>
<path d="M23.5357 89.5765H122.519C125.995 84.8052 128.283 79.5815 129.028 74.1451C129.028 54.6961 116.355 26.3252 72.9785 24.6579C38.8696 23.3453 25.3005 44.71 20.0325 65.1434C18.2854 71.9279 18.5515 80.6458 21.7087 86.8982C22.1521 87.7939 23.0035 88.7163 23.5357 89.5765Z" fill="white"/>
<path d="M122.811 89.1775C126.128 84.5125 128.292 79.4308 129.019 74.1451C129.498 61.1791 125.489 51.122 115.76 41.1182" stroke="#414042" stroke-width="0.883526" stroke-miterlimit="10" stroke-linecap="round" stroke-linejoin="round"/>
<path d="M32.0671 40.5683C24.3691 49.162 20.7418 60.1592 19.4558 68.1587C19.0834 70.4823 17.6023 82.7565 23.5266 89.5765" stroke="#414042" stroke-width="0.883526" stroke-miterlimit="10" stroke-linecap="round" stroke-linejoin="round"/>
<path d="M103.877 32.2318C103.877 32.2318 101.004 12.0378 95.3809 11.6653" stroke="#414042" stroke-width="0.883526" stroke-miterlimit="10" stroke-linecap="round" stroke-linejoin="round"/>
<path d="M89.1812 26.8307C93.6864 27.9305 98.174 29.4736 103.877 32.2318" stroke="#414042" stroke-width="0.883526" stroke-miterlimit="10" stroke-linecap="round" stroke-linejoin="round"/>
<path d="M38.3193 34.4223C38.3193 34.4223 38.5588 13.9446 44.1017 12.9335C46.5938 12.4812 50.2211 20.2857 50.2211 20.2857" stroke="#414042" stroke-width="0.883526" stroke-miterlimit="10" stroke-linecap="round" stroke-linejoin="round"/>
<path d="M58.8862 25.6069C63.1787 24.8087 67.8613 24.4628 72.9697 24.6579C75.1159 24.7377 79.2664 24.8176 84.8448 25.8641" stroke="#414042" stroke-width="0.883526" stroke-miterlimit="10" stroke-linecap="round" stroke-linejoin="round"/>
<path d="M58.6554 58.5096C58.0523 59.9996 55.7376 61.0283 53.0415 60.8775C50.4252 60.7356 48.2968 59.5384 47.7646 58.0573" stroke="#414042" stroke-width="0.883526" stroke-miterlimit="10" stroke-linecap="round" stroke-linejoin="round"/>
<path d="M85.6338 58.5096C86.2369 59.9996 88.5516 61.0283 91.2477 60.8775C93.8639 60.7356 95.9924 59.5384 96.5245 58.0573" stroke="#414042" stroke-width="0.883526" stroke-miterlimit="10" stroke-linecap="round" stroke-linejoin="round"/>
<path d="M9.03501 67.4758L1 67.1122" stroke="#414042" stroke-width="0.883526" stroke-miterlimit="10" stroke-linecap="round" stroke-linejoin="round"/>
<path d="M9.23871 75.5463L1.24805 77.1426" stroke="#414042" stroke-width="0.883526" stroke-miterlimit="10" stroke-linecap="round" stroke-linejoin="round"/>
<path d="M136.017 67.4758L144.043 67.1122" stroke="#414042" stroke-width="0.883526" stroke-miterlimit="10" stroke-linecap="round" stroke-linejoin="round"/>
<path d="M135.812 75.5463L144.734 77.1426" stroke="#414042" stroke-width="0.883526" stroke-miterlimit="10" stroke-linecap="round" stroke-linejoin="round"/>
<path d="M13.4424 89.5765H105.747" stroke="#414042" stroke-width="0.883526" stroke-miterlimit="10" stroke-linecap="round" stroke-linejoin="round"/>
<path d="M67.7631 66.6244C66.5126 65.0015 66.5304 63.4849 68.4992 62.8907C70.1577 62.3941 74.0953 62.3852 75.6296 62.7133C77.6517 63.1479 78.5297 64.5669 76.7648 66.7131C75.1596 68.6642 73.1641 69.826 73.1641 69.826C72.632 70.2517 71.8693 70.2694 71.3194 69.8704C71.3106 69.8792 68.9072 68.1055 67.7631 66.6244Z" fill="#414042"/>
<path d="M72.2242 67.5823L72.2153 73.3824" stroke="#414042" stroke-width="0.883526" stroke-miterlimit="10" stroke-linecap="round" stroke-linejoin="round"/>
<path d="M60.6152 71.0233C60.6152 71.0233 62.8147 78.8189 72.2243 73.3824" stroke="#414042" stroke-width="0.883526" stroke-miterlimit="10" stroke-linecap="round" stroke-linejoin="round"/>
<path d="M83.9045 71.0233C83.9045 71.0233 81.7051 78.8189 72.2954 73.3824" stroke="#414042" stroke-width="0.883526" stroke-miterlimit="10" stroke-linecap="round" stroke-linejoin="round"/>
<path d="M38.3193 34.4223C38.3193 34.4223 42.2038 31.4513 45.4143 29.9968" stroke="#414042" stroke-width="0.883526" stroke-miterlimit="10" stroke-linecap="round" stroke-linejoin="round"/>
<path d="M116.16 89.5411C116.16 93.8512 120.958 99.2168 128.168 99.2168C135.378 99.2168 141.373 93.8512 141.373 89.5411C141.373 85.2309 135.378 80.9473 128.168 80.9473C120.958 80.9473 116.16 85.2309 116.16 89.5411Z" fill="white"/>
<path d="M141.382 89.5411C141.382 85.2309 135.386 80.9473 128.176 80.9473C120.966 80.9473 116.168 85.2309 116.168 89.5411C116.168 93.8512 120.966 99.2168 128.176 99.2168C131.697 99.2168 134.925 97.9397 137.311 96.1305" stroke="#414042" stroke-width="0.883526" stroke-miterlimit="10" stroke-linecap="round" stroke-linejoin="round"/>
<path d="M132.709 90.3038C131.059 92.5121 130.66 95.5984 131.689 98.1614" stroke="#414042" stroke-width="0.883526" stroke-miterlimit="10" stroke-linecap="round" stroke-linejoin="round"/>
<path d="M123.494 89.8248C121.499 91.909 120.958 95.2525 122.19 97.8598" stroke="#414042" stroke-width="0.883526" stroke-miterlimit="10" stroke-linecap="round" stroke-linejoin="round"/>
<path d="M48.8198 42.6968C50.3718 41.402 52.3584 40.6393 54.3716 40.5594" stroke="#414042" stroke-width="0.883526" stroke-miterlimit="10" stroke-linecap="round" stroke-linejoin="round"/>
<path d="M95.6197 42.6968C94.0676 41.402 92.0811 40.6393 90.0679 40.5594" stroke="#414042" stroke-width="0.883526" stroke-miterlimit="10" stroke-linecap="round" stroke-linejoin="round"/>
</svg>
