<svg width="123" height="41" viewBox="0 0 123 41" fill="none" xmlns="http://www.w3.org/2000/svg">
<path fill-rule="evenodd" clip-rule="evenodd" d="M27.8937 7.2168H0V11.5549C0 13.9481 1.92662 15.8836 4.29672 15.8836H8.58419V20.2217C8.58419 22.6148 10.5108 24.5501 12.8812 24.5501H17.1687V33.2168H21.4657L21.467 33.2166L21.4688 33.2168C23.8392 33.2168 25.7563 31.2813 25.7563 28.8882C25.7563 28.8774 25.7532 28.8672 25.7532 28.8563V24.5501H27.8937C32.6347 24.5501 36.4781 20.67 36.4781 15.8835C36.4781 11.097 32.6347 7.2168 27.8937 7.2168Z" fill="#238BF2"/>
<path d="M17.1689 33.217V24.5503H25.7534V28.8565C25.7534 28.8673 25.7566 28.8776 25.7566 28.8884C25.7566 31.2815 23.8395 33.217 21.4691 33.217L21.4672 33.2168L21.466 33.217H17.1689Z" fill="#9FD6FF"/>
<path fill-rule="evenodd" clip-rule="evenodd" d="M8.58414 15.8835H4.29666C3.11452 15.8835 2.04258 15.4019 1.26514 14.6223C2.04267 15.4019 3.11452 15.8835 4.29666 15.8835H8.58414Z" fill="#89AACD"/>
<path fill-rule="evenodd" clip-rule="evenodd" d="M8.58419 15.8836H4.29672C3.11457 15.8836 2.04273 15.402 1.26519 14.6223C0.484017 13.8389 0 12.7544 0 11.555V7.2168H8.58419V15.8836Z" fill="#A2D4F8"/>
<path fill-rule="evenodd" clip-rule="evenodd" d="M8.58398 15.8836H17.1685V7.2168H8.58398V15.8836Z" fill="#56B0FB"/>
<path fill-rule="evenodd" clip-rule="evenodd" d="M17.1685 15.8836H25.7529V7.2168H17.1685V15.8836Z" fill="#238BF2"/>
<path fill-rule="evenodd" clip-rule="evenodd" d="M17.1689 24.5501H25.7534V15.8833H17.1689V24.5501Z" fill="#5BB1F7"/>
<path fill-rule="evenodd" clip-rule="evenodd" d="M17.1685 24.5501H12.881C11.6955 24.5501 10.6211 24.0662 9.84318 23.2829C10.6211 24.0662 11.6955 24.5501 12.881 24.5501H17.1685ZM8.77842 21.5129C8.65208 21.1052 8.58398 20.6716 8.58398 20.2217C8.58398 20.6716 8.65208 21.1052 8.77842 21.5129Z" fill="#A4BBD7"/>
<path fill-rule="evenodd" clip-rule="evenodd" d="M17.1685 24.5501H12.881C11.6955 24.5501 10.6211 24.0661 9.84318 23.2828C9.35798 22.7944 8.988 22.1893 8.77842 21.5129C8.65208 21.1052 8.58398 20.6716 8.58398 20.2216V15.8835H17.1685V24.5501Z" fill="#77C5FA"/>
<path d="M51.518 30.2168C50.494 30.2168 50.174 29.8648 50.174 28.8728V8.8408C50.174 7.84879 50.494 7.4968 51.518 7.4968H60.35C65.342 7.4968 68.606 10.4088 68.606 15.4968C68.606 20.5208 65.374 23.4008 60.414 23.4008H56.478V28.8728C56.478 29.8648 56.158 30.2168 55.134 30.2168H51.518ZM56.478 17.8008H59.646C61.15 17.8008 62.046 16.8728 62.046 15.4328C62.046 14.0248 61.182 13.0648 59.646 13.0648H56.478V17.8008ZM71.9458 30.2168C71.0178 30.2168 70.7298 29.8968 70.7298 29.0008V14.7928C70.7298 13.8968 71.0178 13.5768 71.9458 13.5768H75.4338C76.3618 13.5768 76.6818 13.8968 76.6818 14.7928V29.0008C76.6818 29.8968 76.3618 30.2168 75.4338 30.2168H71.9458ZM70.5378 9.2248V8.8728C70.5378 7.0808 71.0818 6.5368 72.9058 6.5368H74.4738C76.2978 6.5368 76.8418 7.0808 76.8418 8.8728V9.2248C76.8418 11.0168 76.2978 11.5288 74.4738 11.5288H72.9058C71.0818 11.5288 70.5378 11.0168 70.5378 9.2248ZM79.5758 30.2168C78.1038 30.2168 78.0078 29.7368 78.6478 28.7768L83.3518 21.6728L78.8718 15.0168C78.2958 14.1848 78.3598 13.5768 79.8318 13.5768H82.9358C84.3118 13.5768 84.7278 13.7048 85.2078 14.6328L87.0318 17.7368L88.8238 14.6328C89.3358 13.6728 89.6558 13.5768 90.9358 13.5768H94.1998C95.5118 13.5768 95.6718 14.0888 95.0638 15.0168L90.6798 21.6408L95.3518 28.7768C96.0238 29.7688 95.8318 30.2168 94.4558 30.2168H91.2558C89.8798 30.2168 89.5598 30.1528 89.0158 29.1608L86.9678 25.5128L84.9838 29.1608C84.4718 30.1528 84.0558 30.2168 82.7438 30.2168H79.5758ZM104.093 30.6968C98.3648 30.6968 96.1248 27.4968 96.1248 23.3048V20.4568C96.1248 15.6888 98.9408 13.0968 104.125 13.0968C109.661 13.0968 112.125 16.2648 112.125 20.1048V21.8648C112.125 22.8888 111.709 23.5288 110.397 23.5288H102.077V24.1368C102.077 25.6408 102.909 26.2168 104.157 26.2168C105.533 26.2168 106.269 25.6408 106.717 25.0648C107.165 24.4248 107.485 24.2328 108.509 24.7128L110.717 25.6728C111.581 26.0888 111.805 26.6328 111.325 27.5288C110.109 29.6408 107.773 30.6968 104.093 30.6968ZM102.077 19.6568H106.173V19.2408C106.173 17.9608 105.565 17.3208 104.125 17.3208C102.717 17.3208 102.077 17.9608 102.077 19.2408V19.6568ZM115.54 30.2168C114.612 30.2168 114.324 29.8968 114.324 29.0008V7.7528C114.324 6.8568 114.612 6.5368 115.54 6.5368H119.028C119.956 6.5368 120.276 6.8568 120.276 7.7528V29.0008C120.276 29.8968 119.956 30.2168 119.028 30.2168H115.54Z" fill="#238BF2"/>
</svg>
