<svg width="95" height="33" viewBox="0 0 95 33" fill="none" xmlns="http://www.w3.org/2000/svg">
<path d="M46.3834 9.79148C49.6579 12.8126 52.3396 16.8088 52.5642 21.2592C52.7889 25.7096 49.8921 30.4707 45.4991 31.2307C40.2935 32.1342 35.4846 26.919 35.3459 21.6368C35.2073 16.3547 38.5582 11.5363 42.6405 8.19012C51.3835 1.02937 64.161 -0.815793 74.5723 3.582C84.5677 7.8077 91.9579 17.6071 93.3729 28.3482" stroke="#A1D4FF" stroke-width="1.5" stroke-linecap="round" stroke-linejoin="round"/>
<mask id="path-2-inside-1_788_1358" fill="white">
<path d="M91.4033 25.7864L91.824 25.5569L93.3202 28.3103L93.9416 25.2415L94.4101 25.3371L93.5257 29.6918L91.4033 25.7864Z"/>
</mask>
<path d="M91.4033 25.7864L91.824 25.5569L93.3202 28.3103L93.9416 25.2415L94.4101 25.3371L93.5257 29.6918L91.4033 25.7864Z" fill="#F9AB64"/>
<path d="M91.4033 25.7864L90.685 24.4696L89.3702 25.1867L90.0854 26.5026L91.4033 25.7864ZM91.824 25.5569L93.142 24.8408L92.4246 23.5207L91.1057 24.2401L91.824 25.5569ZM93.3202 28.3103L92.0022 29.0265L93.9717 32.6509L94.7903 28.608L93.3202 28.3103ZM93.9416 25.2415L94.2416 23.7717L92.7696 23.4713L92.4714 24.9438L93.9416 25.2415ZM94.4101 25.3371L95.8801 25.6356L96.1783 24.167L94.71 23.8674L94.4101 25.3371ZM93.5257 29.6918L92.2078 30.4081L94.1756 34.029L94.9957 29.9903L93.5257 29.6918ZM92.1216 27.1032L92.5423 26.8738L91.1057 24.2401L90.685 24.4696L92.1216 27.1032ZM90.506 26.2731L92.0022 29.0265L94.6382 27.5942L93.142 24.8408L90.506 26.2731ZM94.7903 28.608L95.4118 25.5392L92.4714 24.9438L91.85 28.0126L94.7903 28.608ZM93.6417 26.7112L94.1101 26.8068L94.71 23.8674L94.2416 23.7717L93.6417 26.7112ZM92.9401 25.0385L92.0557 29.3933L94.9957 29.9903L95.8801 25.6356L92.9401 25.0385ZM94.8437 28.9756L92.7213 25.0702L90.0854 26.5026L92.2078 30.4081L94.8437 28.9756Z" fill="#A1D4FF" mask="url(#path-2-inside-1_788_1358)"/>
<path d="M6.02881 8.86892C10.7325 4.94916 16.6026 2.42521 22.6974 1.83246C29.1029 1.20625 35.6756 2.72158 41.2255 5.9769" stroke="#A1D4FF" stroke-width="1.5" stroke-miterlimit="10" stroke-linecap="round" stroke-linejoin="round"/>
<path d="M1 14.2179C1.46846 13.5726 1.9656 12.9512 2.48664 12.3489" stroke="#A1D4FF" stroke-width="1.5" stroke-miterlimit="10" stroke-linecap="round" stroke-linejoin="round"/>
</svg>
