<svg width="120" height="91" viewBox="0 0 120 91" fill="none" xmlns="http://www.w3.org/2000/svg">
<g clip-path="url(#clip0_915_1936)">
<path d="M119.5 7.5L97.5 73L92 79.1111L88.5 83L88.3077 78L88 70L110.5 5L111.256 5.21012C111.671 3.80675 112.8 1 116 1C120 1 119.5 6.66667 118 7.08333L119.5 7.5Z" fill="#B7EDD6"/>
<path d="M97.5 73L119.5 7.5L118 7.08333M97.5 73L92 79.1111M97.5 73L92 71.2632M88 70L110.5 5L111.256 5.21012M88 70L88.3077 78M88 70L92 71.2632M88.3077 78L88.5 83L92 79.1111M88.3077 78L92 79.1111M92 71.2632L114 5.97222M114 5.97222L111.256 5.21012M114 5.97222L118 7.08333M111.256 5.21012C111.671 3.80675 112.8 1 116 1C120 1 119.5 6.66667 118 7.08333" stroke="#248E96"/>
<path d="M1 77.2027C5.16667 72.8693 16.8 64.6027 30 66.2027C43.2 67.8027 44.5 78.203 43.5 83.2031C42 89.2031 33.5 95 33.5 83.2031C33.5 65.8461 51.2463 67.3041 56 78C60 87 55 90.8699 54.5 89.2031C53.5 85.8695 55.4 78.5996 69 77C82.6 75.4004 87.6667 80.3338 88.5 83.0005" stroke="#248E96" stroke-linecap="round"/>
</g>
<defs>
<clipPath id="clip0_915_1936">
<rect width="120" height="91" fill="white"/>
</clipPath>
</defs>
</svg>
