<svg width="46" height="36" viewBox="0 0 46 36" fill="none" xmlns="http://www.w3.org/2000/svg">
<g clip-path="url(#clip0_914_1922)">
<path d="M17.2424 3.00485L13.2056 0.049712C12.7009 -0.319786 10.5886 1.44067 9.16907 3.00485C6.51755 5.92665 4.49918 9.35985 2.60937 13.3478C0.601373 17.5852 -0.296422 22.1984 0.0864178 25.6609C0.681748 31.0453 4.25006 36.4475 12.068 35.9706C20.1415 35.4781 22.0846 26.1268 17.7471 22.2133C13.4095 18.2998 11.5634 19.7173 12.068 14.7921C12.4717 10.4579 15.6858 5.12801 17.2424 3.00485Z" fill="#A1D4FF"/>
<path d="M43.2424 3.00485L39.2056 0.049712C38.7009 -0.319786 36.5886 1.44067 35.1691 3.00485C32.5175 5.92665 30.4992 9.35985 28.6094 13.3478C26.6014 17.5852 25.7036 22.1984 26.0864 25.6609C26.6817 31.0453 30.2501 36.4475 38.068 35.9706C46.1415 35.4781 48.0846 26.1268 43.7471 22.2133C39.4095 18.2998 37.5634 19.7173 38.068 14.7921C38.4717 10.4579 41.6858 5.12801 43.2424 3.00485Z" fill="#A1D4FF"/>
</g>
<defs>
<clipPath id="clip0_914_1922">
<rect width="46" height="36" fill="white"/>
</clipPath>
</defs>
</svg>
