<svg width="46" height="57" viewBox="0 0 46 57" fill="none" xmlns="http://www.w3.org/2000/svg">
<path d="M24.3437 10.4349L25.5198 2.27461C25.7358 0.690555 27.6318 -0.00548169 28.8319 1.02656L35.0721 6.40277C35.3601 6.66678 35.7202 6.81078 36.1042 6.88278L44.2645 8.05884C45.8485 8.27485 46.5445 10.1709 45.5125 11.3709L40.1363 17.6112C39.8723 17.8992 39.7283 18.2592 39.6563 18.6432L38.4802 26.8035C38.2642 28.3876 36.3681 29.0836 35.1681 28.0516L28.9279 22.6754C28.6399 22.4114 28.2798 22.2674 27.8958 22.1954L19.7355 21.0193C18.1515 20.8033 17.4555 18.9072 18.4875 17.7072L23.8637 11.467C24.1277 11.179 24.2957 10.8189 24.3437 10.4349Z" fill="white"/>
<path d="M4.32756 48.3705L5.2574 45.5767C5.43358 45.0336 6.14408 44.9089 6.50056 45.3476L8.35368 47.6323C8.43821 47.7433 8.55564 47.8167 8.68606 47.8663L11.4799 48.7961C12.023 48.9723 12.1476 49.6828 11.7089 50.0393L9.42431 51.8924C9.31328 51.9769 9.23989 52.0944 9.19027 52.2248L8.26043 55.0186C8.08425 55.5617 7.37375 55.6864 7.01726 55.2477L5.16415 52.9631C5.07963 52.852 4.96219 52.7786 4.83177 52.729L2.03795 51.7992C1.49484 51.623 1.37019 50.9125 1.80889 50.556L4.09352 48.7029C4.20455 48.6184 4.28639 48.5024 4.32756 48.3705Z" fill="white"/>
</svg>
