<svg width="26" height="26" viewBox="0 0 26 26" fill="none" xmlns="http://www.w3.org/2000/svg">
<g clip-path="url(#clip0_901_1885)">
<path d="M13 7.26055C14.8703 7.26055 15.0918 7.26875 15.8273 7.30156C16.5109 7.33164 16.8801 7.44648 17.1262 7.54219C17.4516 7.66797 17.6867 7.82109 17.9301 8.06445C18.1762 8.31055 18.3266 8.54297 18.4523 8.86836C18.548 9.11445 18.6629 9.48633 18.693 10.1672C18.7258 10.9055 18.734 11.127 18.734 12.9945C18.734 14.8648 18.7258 15.0863 18.693 15.8219C18.6629 16.5055 18.548 16.8746 18.4523 17.1207C18.3266 17.4461 18.1734 17.6813 17.9301 17.9246C17.684 18.1707 17.4516 18.3211 17.1262 18.4469C16.8801 18.5426 16.5082 18.6574 15.8273 18.6875C15.0891 18.7203 14.8676 18.7285 13 18.7285C11.1297 18.7285 10.9082 18.7203 10.1727 18.6875C9.48906 18.6574 9.11992 18.5426 8.87383 18.4469C8.54844 18.3211 8.31328 18.168 8.06992 17.9246C7.82383 17.6785 7.67344 17.4461 7.54766 17.1207C7.45195 16.8746 7.33711 16.5027 7.30703 15.8219C7.27422 15.0836 7.26602 14.8621 7.26602 12.9945C7.26602 11.1242 7.27422 10.9027 7.30703 10.1672C7.33711 9.48359 7.45195 9.11445 7.54766 8.86836C7.67344 8.54297 7.82656 8.30781 8.06992 8.06445C8.31602 7.81836 8.54844 7.66797 8.87383 7.54219C9.11992 7.44648 9.4918 7.33164 10.1727 7.30156C10.9082 7.26875 11.1297 7.26055 13 7.26055ZM13 6C11.0996 6 10.8617 6.0082 10.1152 6.04102C9.37148 6.07383 8.86016 6.19414 8.41719 6.36641C7.95508 6.54687 7.56406 6.78477 7.17578 7.17578C6.78477 7.56406 6.54687 7.95508 6.36641 8.41445C6.19414 8.86016 6.07383 9.36875 6.04102 10.1125C6.0082 10.8617 6 11.0996 6 13C6 14.9004 6.0082 15.1383 6.04102 15.8848C6.07383 16.6285 6.19414 17.1398 6.36641 17.5828C6.54687 18.0449 6.78477 18.4359 7.17578 18.8242C7.56406 19.2125 7.95508 19.4531 8.41445 19.6309C8.86016 19.8031 9.36875 19.9234 10.1125 19.9562C10.859 19.9891 11.0969 19.9973 12.9973 19.9973C14.8977 19.9973 15.1355 19.9891 15.882 19.9562C16.6258 19.9234 17.1371 19.8031 17.5801 19.6309C18.0395 19.4531 18.4305 19.2125 18.8187 18.8242C19.207 18.4359 19.4477 18.0449 19.6254 17.5855C19.7977 17.1398 19.918 16.6313 19.9508 15.8875C19.9836 15.141 19.9918 14.9031 19.9918 13.0027C19.9918 11.1023 19.9836 10.8645 19.9508 10.118C19.918 9.37422 19.7977 8.86289 19.6254 8.41992C19.4531 7.95508 19.2152 7.56406 18.8242 7.17578C18.4359 6.7875 18.0449 6.54687 17.5855 6.36914C17.1398 6.19687 16.6313 6.07656 15.8875 6.04375C15.1383 6.0082 14.9004 6 13 6Z" fill="white"/>
<path d="M13 9.4043C11.0148 9.4043 9.4043 11.0148 9.4043 13C9.4043 14.9852 11.0148 16.5957 13 16.5957C14.9852 16.5957 16.5957 14.9852 16.5957 13C16.5957 11.0148 14.9852 9.4043 13 9.4043ZM13 15.3324C11.7121 15.3324 10.6676 14.2879 10.6676 13C10.6676 11.7121 11.7121 10.6676 13 10.6676C14.2879 10.6676 15.3324 11.7121 15.3324 13C15.3324 14.2879 14.2879 15.3324 13 15.3324Z" fill="white"/>
<path d="M17.5773 9.26206C17.5773 9.72691 17.2 10.1015 16.7379 10.1015C16.273 10.1015 15.8984 9.72417 15.8984 9.26206C15.8984 8.79722 16.2758 8.42261 16.7379 8.42261C17.2 8.42261 17.5773 8.79995 17.5773 9.26206Z" fill="white"/>
</g>
<defs>
<clipPath id="clip0_901_1885">
<rect width="14" height="14" fill="white" transform="translate(6 6)"/>
</clipPath>
</defs>
</svg>
