<svg width="306" height="62" viewBox="0 0 306 62" fill="none" xmlns="http://www.w3.org/2000/svg">
<path d="M193.269 59.9745C211.488 59.8603 238.668 54.0362 257.302 40.7217" stroke="#F9AB64" stroke-width="2" stroke-miterlimit="10" stroke-linecap="round" stroke-linejoin="round"/>
<path d="M142.981 24.6699C142.61 25.5373 142.496 26.5482 142.603 27.4874C143.043 31.2636 145.205 35.8192 148.453 40.0585C155.901 51.6512 170.142 57.4264 183.779 59.4026C186.013 59.7254 188.56 59.9146 191.351 59.9602" stroke="#F9AB64" stroke-width="2" stroke-miterlimit="10" stroke-linecap="round" stroke-linejoin="round"/>
<path d="M130.515 47.8854C132.973 47.755 135.585 47.3669 138.377 46.6821C146.976 44.132 154.033 37.0459 157.894 28.8674C158.562 27.4521 159.146 25.9423 159.1 24.3803C159.055 22.8183 158.243 21.1845 156.798 20.5878C154.956 19.8247 152.816 20.9791 151.603 22.5639C150.139 24.4814 149.575 27.0608 150.11 29.4152C150.328 30.3674 151.108 31.4794 152.027 31.1468C153.022 30.7848 152.777 29.3239 152.344 28.3587C151.581 26.6499 150.769 24.8792 149.34 23.6726C148.016 22.5509 145.994 22.0682 144.511 22.8933" stroke="#F9AB64" stroke-width="2" stroke-miterlimit="10" stroke-linecap="round" stroke-linejoin="round"/>
<path d="M53.4028 2.66895C56.6964 2.82221 60.1204 3.35049 63.6749 4.30922C92.6063 12.1323 100.142 47.915 128.653 47.9346" stroke="#F9AB64" stroke-width="2" stroke-miterlimit="10" stroke-linecap="round" stroke-linejoin="round"/>
<path d="M9.59131 27.1065C19.2047 14.056 33.2595 2.61327 51.4166 2.62305" stroke="#F9AB64" stroke-width="2" stroke-miterlimit="10" stroke-linecap="round" stroke-linejoin="round"/>
<path d="M1.27588 40.7207C2.12699 39.025 3.05637 37.2967 4.06401 35.5586" stroke="#F9AB64" stroke-width="2" stroke-miterlimit="10" stroke-linecap="round" stroke-linejoin="round"/>
<path d="M257.301 40.7215L275.436 37.4214L283.715 23.4742L275.928 15.2598L261.56 22.7861L257.301 40.7215ZM267.978 27.4069C268.904 26.5264 270.371 26.5656 271.248 27.4949C272.129 28.4211 272.09 29.8885 271.16 30.7657C270.234 31.6462 268.767 31.607 267.89 30.6777C267.012 29.7515 267.052 28.2874 267.978 27.4069Z" stroke="#F9AB64" stroke-width="2" stroke-miterlimit="10" stroke-linecap="round" stroke-linejoin="round"/>
<path d="M257.301 40.7215L267.893 30.6777" stroke="#F9AB64" stroke-width="2" stroke-miterlimit="10" stroke-linecap="round" stroke-linejoin="round"/>
<path d="M277.007 10.7341L288.29 22.6334C288.538 22.8943 288.528 23.3149 288.264 23.5628L286.386 25.3433C286.125 25.5911 285.704 25.5813 285.456 25.3172L274.173 13.4179C273.925 13.157 273.935 12.7363 274.199 12.4885L276.078 10.708C276.342 10.4634 276.759 10.4732 277.007 10.7341Z" stroke="#F9AB64" stroke-width="2" stroke-miterlimit="10" stroke-linecap="round" stroke-linejoin="round"/>
<path d="M305 3.50098L286.65 20.9015L278.651 12.4654L288.104 3.50098" stroke="#F9AB64" stroke-width="2" stroke-miterlimit="10" stroke-linecap="round" stroke-linejoin="round"/>
<path d="M144.338 24.7061H143.125C142.946 24.7061 142.799 24.5594 142.799 24.38V23.1669C142.799 22.9876 142.946 22.8408 143.125 22.8408H144.338C144.517 22.8408 144.664 22.9876 144.664 23.1669V24.38C144.664 24.5594 144.521 24.7061 144.338 24.7061Z" stroke="#F9AB64" stroke-width="2" stroke-miterlimit="10" stroke-linecap="round" stroke-linejoin="round"/>
<path d="M132.015 36.3781L142.864 24.707" stroke="#F9AB64" stroke-width="2" stroke-miterlimit="10" stroke-linecap="round" stroke-linejoin="round"/>
<path d="M144.599 22.838L155.452 11.167" stroke="#F9AB64" stroke-width="2" stroke-miterlimit="10" stroke-linecap="round" stroke-linejoin="round"/>
<path d="M132.015 36.8598C132.281 36.8598 132.497 36.6437 132.497 36.3772C132.497 36.1106 132.281 35.8945 132.015 35.8945C131.748 35.8945 131.532 36.1106 131.532 36.3772C131.532 36.6437 131.748 36.8598 132.015 36.8598Z" fill="#F9AB64"/>
<path d="M155.451 11.6498C155.718 11.6498 155.934 11.4337 155.934 11.1672C155.934 10.9006 155.718 10.6846 155.451 10.6846C155.185 10.6846 154.969 10.9006 154.969 11.1672C154.969 11.4337 155.185 11.6498 155.451 11.6498Z" fill="#F9AB64"/>
<path d="M53.0372 3.55571H51.8241C51.6448 3.55571 51.498 3.40896 51.498 3.22961V2.01653C51.498 1.83717 51.6448 1.69043 51.8241 1.69043H53.0372C53.2166 1.69043 53.3633 1.83717 53.3633 2.01653V3.22961C53.3633 3.40896 53.2166 3.55571 53.0372 3.55571Z" stroke="#F9AB64" stroke-width="2" stroke-miterlimit="10" stroke-linecap="round" stroke-linejoin="round"/>
<path d="M35.2192 2.62305H51.4198" stroke="#F9AB64" stroke-width="2" stroke-miterlimit="10" stroke-linecap="round" stroke-linejoin="round"/>
<path d="M53.4023 2.62305H69.6387" stroke="#F9AB64" stroke-width="2" stroke-miterlimit="10" stroke-linecap="round" stroke-linejoin="round"/>
<path d="M35.2194 3.10587C35.486 3.10587 35.7021 2.8898 35.7021 2.62325C35.7021 2.3567 35.486 2.14062 35.2194 2.14062C34.9529 2.14062 34.7368 2.3567 34.7368 2.62325C34.7368 2.8898 34.9529 3.10587 35.2194 3.10587Z" fill="#F9AB64"/>
<path d="M69.6389 3.10587C69.9054 3.10587 70.1215 2.8898 70.1215 2.62325C70.1215 2.3567 69.9054 2.14062 69.6389 2.14062C69.3723 2.14062 69.1562 2.3567 69.1562 2.62325C69.1562 2.8898 69.3723 3.10587 69.6389 3.10587Z" fill="#F9AB64"/>
<path d="M192.943 60.9102H191.73C191.551 60.9102 191.404 60.7635 191.404 60.5841V59.371C191.404 59.1917 191.551 59.0449 191.73 59.0449H192.943C193.122 59.0449 193.269 59.1917 193.269 59.371V60.5841C193.269 60.7635 193.122 60.9102 192.943 60.9102Z" stroke="#F9AB64" stroke-width="2" stroke-miterlimit="10" stroke-linecap="round" stroke-linejoin="round"/>
<path d="M175.125 59.9746H191.326" stroke="#F9AB64" stroke-width="2" stroke-miterlimit="10" stroke-linecap="round" stroke-linejoin="round"/>
<path d="M193.308 59.9746H209.545" stroke="#F9AB64" stroke-width="2" stroke-miterlimit="10" stroke-linecap="round" stroke-linejoin="round"/>
<path d="M175.125 60.4565C175.392 60.4565 175.608 60.2404 175.608 59.9738C175.608 59.7073 175.392 59.4912 175.125 59.4912C174.859 59.4912 174.643 59.7073 174.643 59.9738C174.643 60.2404 174.859 60.4565 175.125 60.4565Z" fill="#F9AB64"/>
<path d="M209.545 60.4565C209.811 60.4565 210.027 60.2404 210.027 59.9738C210.027 59.7073 209.811 59.4912 209.545 59.4912C209.278 59.4912 209.062 59.7073 209.062 59.9738C209.062 60.2404 209.278 60.4565 209.545 60.4565Z" fill="#F9AB64"/>
<path d="M130.189 48.9278H128.976C128.797 48.9278 128.65 48.781 128.65 48.6017V47.3886C128.65 47.2092 128.797 47.0625 128.976 47.0625H130.189C130.368 47.0625 130.515 47.2092 130.515 47.3886V48.6017C130.515 48.781 130.372 48.9278 130.189 48.9278Z" stroke="#F9AB64" stroke-width="2" stroke-miterlimit="10" stroke-linecap="round" stroke-linejoin="round"/>
<path d="M112.374 47.9951H128.571" stroke="#F9AB64" stroke-width="2" stroke-miterlimit="10" stroke-linecap="round" stroke-linejoin="round"/>
<path d="M130.554 47.9951H146.794" stroke="#F9AB64" stroke-width="2" stroke-miterlimit="10" stroke-linecap="round" stroke-linejoin="round"/>
<path d="M112.374 48.4779C112.641 48.4779 112.857 48.2619 112.857 47.9953C112.857 47.7288 112.641 47.5127 112.374 47.5127C112.108 47.5127 111.892 47.7288 111.892 47.9953C111.892 48.2619 112.108 48.4779 112.374 48.4779Z" fill="#F9AB64"/>
<path d="M146.794 48.4779C147.06 48.4779 147.276 48.2619 147.276 47.9953C147.276 47.7288 147.06 47.5127 146.794 47.5127C146.527 47.5127 146.311 47.7288 146.311 47.9953C146.311 48.2619 146.527 48.4779 146.794 48.4779Z" fill="#F9AB64"/>
</svg>
