<svg width="16" height="17" viewBox="0 0 16 17" fill="none" xmlns="http://www.w3.org/2000/svg">
<g clip-path="url(#clip0_905_1885)">
<g opacity="0.8">
<path fill-rule="evenodd" clip-rule="evenodd" d="M9.50253 3.90539C9.86209 2.09121 10.5743 0.981623 10.8663 1.00023C11.7974 1.05824 12.546 3.83916 12.8915 5.39071C14.1963 6.44904 15.0057 7.97314 15 9.79468C14.9886 13.3778 11.8684 15.81 8.00532 15.81C4.14228 15.81 0.786 13.5629 1.01067 9.79468C1.10351 8.23749 1.65441 6.94006 2.54155 5.95362C2.6307 3.06576 3.74961 1.31142 4.13188 1.33578C4.78796 1.37665 5.33716 2.70953 5.73301 4.06486C6.43865 3.87671 7.20127 3.77936 8.00532 3.77936C8.51903 3.77936 9.02001 3.82238 9.50253 3.90539Z" fill="white"/>
<path d="M10.8663 1.00023L10.8282 1.59859L10.8291 1.59864L10.8663 1.00023ZM9.50253 3.90539L9.40088 4.49628L9.97702 4.59539L10.0907 4.02195L9.50253 3.90539ZM12.8915 5.39071L12.3063 5.52104L12.3517 5.72484L12.5138 5.85637L12.8915 5.39071ZM15 9.79468L15.5995 9.79658L15.5995 9.79658L15 9.79468ZM1.01067 9.79468L1.60918 9.83036L1.01067 9.79468ZM2.54155 5.95362L2.98735 6.35455L3.13406 6.19142L3.14083 5.97212L2.54155 5.95362ZM4.13188 1.33578L4.09376 1.93413L4.0946 1.93419L4.13188 1.33578ZM5.73301 4.06486L5.15749 4.23296L5.32166 4.79506L5.88748 4.64419L5.73301 4.06486ZM10.9045 0.401873C10.679 0.387508 10.5028 0.481916 10.4059 0.546529C10.2988 0.617967 10.2065 0.708229 10.1292 0.796529C9.97336 0.974807 9.82017 1.21358 9.67717 1.49012C9.38855 2.04828 9.10368 2.83379 8.9144 3.78883L10.0907 4.02195C10.2609 3.16281 10.512 2.48644 10.7423 2.04091C10.8588 1.81561 10.9609 1.66709 11.032 1.58586C11.0682 1.5444 11.0822 1.53686 11.0714 1.54409C11.0707 1.5445 10.9806 1.6083 10.8282 1.59859L10.9045 0.401873ZM13.4767 5.26039C13.3021 4.47617 13.0209 3.35809 12.6577 2.41911C12.4774 1.95281 12.2649 1.49889 12.0171 1.1472C11.7908 0.826008 11.4264 0.434391 10.9036 0.401819L10.8291 1.59864C10.7718 1.59507 10.8501 1.57282 11.0368 1.83785C11.2021 2.07239 11.3729 2.42155 11.5393 2.85168C11.8696 3.70554 12.1354 4.7537 12.3063 5.52104L13.4767 5.26039ZM12.5138 5.85637C13.6878 6.80855 14.4056 8.16514 14.4004 9.79278L15.5995 9.79658C15.6059 7.78115 14.7049 6.08953 13.2692 4.92506L12.5138 5.85637ZM14.4004 9.79278C14.3904 12.9507 11.6415 15.2104 8.00532 15.2104V16.4096C12.0952 16.4096 15.5868 13.8049 15.5995 9.79658L14.4004 9.79278ZM8.00532 15.2104C6.1821 15.2104 4.51704 14.6791 3.34915 13.7468C2.19662 12.8268 1.50926 11.5062 1.60918 9.83036L0.41216 9.75899C0.287411 11.8513 1.16585 13.5384 2.60106 14.684C4.0209 15.8174 5.9655 16.4096 8.00532 16.4096V15.2104ZM1.60918 9.83036C1.69451 8.39919 2.19717 7.23318 2.98735 6.35455L2.09574 5.55269C1.11165 6.64694 0.512517 8.07579 0.41216 9.75899L1.60918 9.83036ZM4.17001 0.737419C3.90306 0.720409 3.69741 0.853173 3.59425 0.931711C3.47149 1.02518 3.35998 1.14582 3.26105 1.27327C3.06094 1.53104 2.8584 1.88671 2.67502 2.31802C2.30622 3.18545 1.98905 4.41954 1.94226 5.93512L3.14083 5.97212C3.1832 4.59985 3.47005 3.51283 3.77856 2.78721C3.93384 2.422 4.08828 2.16316 4.20827 2.0086C4.26938 1.92988 4.3087 1.8949 4.32064 1.88581C4.3522 1.86179 4.26514 1.94505 4.09376 1.93413L4.17001 0.737419ZM6.30854 3.89677C6.10699 3.20672 5.8573 2.48861 5.55993 1.92688C5.41177 1.647 5.23724 1.3777 5.02986 1.16763C4.82489 0.95999 4.53719 0.760293 4.16916 0.737365L4.0946 1.93419C4.05461 1.9317 4.08159 1.91394 4.17648 2.01006C4.26898 2.10375 4.3795 2.26005 4.50013 2.48792C4.74034 2.94167 4.96318 3.56768 5.15749 4.23296L6.30854 3.89677ZM5.88748 4.64419C6.53906 4.47046 7.24948 4.37894 8.00532 4.37894V3.17979C7.15307 3.17979 6.33825 3.28297 5.57854 3.48553L5.88748 4.64419ZM8.00532 4.37894C8.4856 4.37894 8.95256 4.41915 9.40088 4.49628L9.60419 3.3145C9.08747 3.2256 8.55247 3.17979 8.00532 3.17979V4.37894Z" fill="#414143"/>
<path d="M10.3061 8.85661C10.3076 8.96547 10.2729 9.05116 10.2326 9.10251C10.193 9.15303 10.1608 9.15844 10.1488 9.15863C10.1369 9.15883 10.1045 9.15447 10.0634 9.10526C10.0217 9.05524 9.98452 8.97072 9.98296 8.86187C9.98139 8.75301 10.0161 8.66732 10.0564 8.61596C10.096 8.56544 10.1283 8.56003 10.1402 8.55984C10.1521 8.55964 10.1846 8.564 10.2256 8.61321C10.2673 8.66323 10.3045 8.74776 10.3061 8.85661Z" fill="#414143" stroke="#414143" stroke-width="0.839836"/>
<path d="M5.37148 8.87516C5.37305 8.98402 5.3383 9.06971 5.29806 9.12106C5.25847 9.17158 5.22618 9.17699 5.21425 9.17719C5.20231 9.17738 5.16988 9.17302 5.12886 9.12382C5.08716 9.07379 5.04995 8.98927 5.04839 8.88042C5.04682 8.77157 5.08157 8.68587 5.12182 8.63452C5.16141 8.584 5.19369 8.57859 5.20563 8.57839C5.21756 8.5782 5.24998 8.58255 5.29101 8.63177C5.33271 8.68179 5.36992 8.76631 5.37148 8.87516Z" fill="#414143" stroke="#414143" stroke-width="0.839836"/>
<path d="M7.48739 11.363C6.82924 11.9734 6.1951 12.0153 5.73299 11.8307" stroke="#414143" stroke-width="0.991762" stroke-miterlimit="10" stroke-linecap="round" stroke-linejoin="round"/>
<path d="M7.48404 11.363C8.1422 11.9734 8.9876 12.0153 9.44971 11.8307" stroke="#414143" stroke-width="0.991762" stroke-miterlimit="10" stroke-linecap="round" stroke-linejoin="round"/>
<path d="M7.06988 10.5338C7.13415 10.6202 7.24838 10.7315 7.36391 10.8326C7.39715 10.8617 7.42812 10.8879 7.4554 10.9105C7.4749 10.8955 7.49714 10.8778 7.52134 10.8576C7.6153 10.7792 7.7316 10.6689 7.83195 10.5364L7.06988 10.5338ZM7.06988 10.5338C7.15673 10.5197 7.27987 10.508 7.42258 10.5038C7.60321 10.4985 7.75895 10.5067 7.84484 10.5189C7.84086 10.5245 7.8366 10.5303 7.83201 10.5364L7.06988 10.5338ZM7.56432 10.9978L7.56433 10.9978L7.56432 10.9978ZM7.56432 10.9978C7.56375 10.9974 7.56312 10.9969 7.56244 10.9964L7.56432 10.9978Z" fill="#414143" stroke="#414143" stroke-width="0.839836"/>
</g>
</g>
<defs>
<clipPath id="clip0_905_1885">
<rect width="16" height="17" fill="white"/>
</clipPath>
</defs>
</svg>
