<svg width="16" height="17" viewBox="0 0 16 17" fill="none" xmlns="http://www.w3.org/2000/svg">
<path opacity="0.8" fill-rule="evenodd" clip-rule="evenodd" d="M1.09992 7.59642C5.39487 5.76182 8.25885 4.55233 9.69185 3.96797C13.7834 2.2995 14.6335 2.00967 15.1877 2.0001C15.3095 1.998 15.5821 2.02761 15.7586 2.16804C15.9076 2.28661 15.9486 2.44679 15.9683 2.55921C15.9879 2.67163 16.0123 2.92773 15.9929 3.12784C15.7712 5.41185 14.8118 10.9545 14.3237 13.5127C14.1172 14.5951 13.7105 14.958 13.3169 14.9936C12.4613 15.0707 11.8116 14.4392 10.9829 13.9067C9.68624 13.0733 8.9537 12.5545 7.69503 11.7413C6.24043 10.8015 7.18338 10.285 8.01236 9.44087C8.22931 9.21995 11.999 5.8583 12.0719 5.55334C12.0811 5.5152 12.0895 5.37304 12.0034 5.29797C11.9172 5.2229 11.7901 5.24857 11.6983 5.26899C11.5683 5.29792 9.4968 6.64029 5.48389 9.29607C4.89591 9.69192 4.36333 9.88479 3.88616 9.87468C3.36012 9.86354 2.34822 9.58307 1.59598 9.34334C0.673328 9.04929 -0.0599784 8.89383 0.00387615 8.39445C0.0371355 8.13434 0.402482 7.86833 1.09992 7.59642Z" fill="#414143"/>
</svg>
